<?xml version="1.0" encoding="UTF-8"?>
<!DOCTYPE svg PUBLIC "-//W3C//DTD SVG 1.1//EN" "http://www.w3.org/Graphics/SVG/1.1/DTD/svg11.dtd">
<svg version="1.1" xmlns="http://www.w3.org/2000/svg" xmlns:xlink="http://www.w3.org/1999/xlink" width="66" height="25"  xml:space="preserve" id="scratchlogo">
    <!-- Generated by PaintCode - http://www.paintcodeapp.com -->
    <path id="scratchlogo-text3" stroke="rgb(255, 255, 255)" stroke-width="8" stroke-miterlimit="10" fill="rgb(255, 255, 255)" d="M 8.62,13.01 C 8.39,13 8.27,13.13 8.27,13.4 L 8.27,13.81 C 8.27,14.11 8.4,14.25 8.66,14.25 8.77,14.25 8.9,14.24 9.05,14.22 9.24,14.18 9.4,14.16 9.53,14.16 9.75,14.16 9.92,14.24 10.05,14.4 10.18,14.55 10.25,14.76 10.25,15.02 10.25,15.31 10.16,15.54 9.99,15.71 9.81,15.88 9.59,15.97 9.31,15.97 9.07,15.97 8.71,15.95 8.23,15.91 7.76,15.86 7.4,15.84 7.15,15.84 6.78,15.84 6.47,15.85 6.22,15.88 L 5.58,15.94 C 5.41,15.96 5.29,15.97 5.23,15.97 4.95,15.97 4.73,15.88 4.56,15.71 4.39,15.54 4.31,15.31 4.31,15.02 4.31,14.78 4.37,14.57 4.51,14.41 4.64,14.25 4.81,14.16 5.01,14.16 5.09,14.16 5.2,14.18 5.33,14.21 5.47,14.24 5.57,14.25 5.63,14.25 5.87,14.25 5.98,13.96 5.98,13.37 L 5.98,9.77 C 5.98,9.49 5.98,9.31 5.96,9.24 5.91,9.01 5.81,8.9 5.63,8.9 5.56,8.9 5.46,8.91 5.33,8.94 5.19,8.97 5.09,8.99 5.01,8.99 4.81,8.99 4.64,8.91 4.51,8.74 4.37,8.58 4.31,8.37 4.31,8.13 4.31,7.84 4.39,7.61 4.57,7.44 4.74,7.26 4.97,7.17 5.24,7.17 5.25,7.17 5.26,7.17 5.28,7.17 5.3,7.18 5.32,7.18 5.33,7.18 5.54,7.18 5.86,7.2 6.28,7.25 6.71,7.29 7.03,7.31 7.25,7.31 7.66,7.31 8.12,7.29 8.61,7.26 9.23,7.22 9.59,7.19 9.68,7.19 10.62,7.19 11.39,7.46 11.97,7.99 12.56,8.53 12.85,9.23 12.85,10.09 12.85,11 12.55,11.71 11.94,12.24 11.34,12.77 10.52,13.03 9.48,13.03 9.39,13.03 9.23,13.03 8.99,13.02 L 8.62,13.01 Z M 17.11,19.13 C 16.4,19.13 15.93,18.84 15.68,18.27 15.08,18.84 14.36,19.13 13.53,19.13 12.84,19.13 12.3,18.95 11.89,18.59 11.48,18.23 11.28,17.75 11.28,17.15 11.28,16.24 11.67,15.65 12.46,15.38 12.8,15.27 13.19,15.17 13.63,15.1 14.25,14.99 14.66,14.87 14.88,14.74 15.11,14.6 15.22,14.4 15.22,14.12 15.22,13.92 15.13,13.75 14.96,13.62 14.79,13.49 14.58,13.42 14.33,13.42 14.05,13.42 13.9,13.51 13.9,13.69 13.9,13.75 13.91,13.81 13.92,13.87 L 13.92,13.93 C 13.92,14.17 13.81,14.37 13.61,14.54 13.41,14.7 13.15,14.78 12.85,14.78 12.5,14.78 12.22,14.68 11.99,14.47 11.77,14.26 11.65,14 11.65,13.69 11.65,13.22 11.9,12.86 12.39,12.59 12.89,12.32 13.57,12.18 14.44,12.18 15.37,12.18 16.07,12.33 16.53,12.61 17.02,12.93 17.27,13.51 17.27,14.36 L 17.27,17.05 C 17.27,17.32 17.34,17.46 17.48,17.46 17.55,17.46 17.61,17.46 17.67,17.45 17.7,17.44 17.73,17.44 17.76,17.44 17.96,17.44 18.13,17.51 18.27,17.64 18.41,17.78 18.48,17.95 18.48,18.15 18.48,18.44 18.35,18.67 18.1,18.85 17.84,19.04 17.51,19.13 17.11,19.13 Z M 15.23,16.34 L 15.23,16.06 C 15.17,16.09 14.79,16.2 14.09,16.38 13.61,16.5 13.37,16.69 13.37,16.94 13.37,17.34 13.6,17.54 14.07,17.54 14.84,17.54 15.23,17.14 15.23,16.34 Z M 21.11,7 C 22.01,7 22.72,7.31 23.24,7.92 23.25,7.62 23.31,7.41 23.41,7.3 23.52,7.19 23.71,7.13 23.98,7.13 24.53,7.13 24.81,7.36 24.81,7.83 24.81,7.96 24.8,8.15 24.77,8.4 24.75,8.66 24.73,8.85 24.73,8.98 24.73,9.05 24.74,9.17 24.76,9.31 24.78,9.46 24.79,9.57 24.79,9.65 L 24.79,9.72 C 24.79,10.23 24.49,10.48 23.9,10.48 23.41,10.48 23.11,10.28 23.02,9.86 L 22.95,9.59 C 22.82,9.02 22.36,8.74 21.57,8.74 20.83,8.74 20.46,9 20.46,9.52 20.46,9.79 20.54,9.97 20.7,10.07 20.86,10.16 21.26,10.28 21.91,10.41 23,10.62 23.8,10.95 24.29,11.38 24.79,11.81 25.03,12.4 25.03,13.15 25.03,14.02 24.73,14.74 24.14,15.3 23.54,15.86 22.77,16.14 21.85,16.14 21.08,16.14 20.33,15.86 19.62,15.31 19.6,15.79 19.34,16.03 18.84,16.03 18.28,16.03 18,15.76 18,15.2 18,15.02 18.01,14.83 18.04,14.62 18.07,14.34 18.09,14.13 18.09,13.98 18.09,13.89 18.08,13.74 18.06,13.54 18.04,13.34 18.03,13.19 18.03,13.1 18.03,12.87 18.12,12.69 18.3,12.54 18.49,12.4 18.73,12.33 19.03,12.33 19.36,12.33 19.59,12.4 19.73,12.54 19.88,12.69 19.98,12.95 20.04,13.34 20.14,13.99 20.63,14.32 21.52,14.32 21.89,14.32 22.18,14.23 22.39,14.06 22.61,13.89 22.72,13.66 22.72,13.38 22.72,13.08 22.62,12.87 22.43,12.74 22.24,12.61 21.79,12.46 21.07,12.29 L 20.21,12.08 C 19.84,11.99 19.49,11.82 19.17,11.58 18.54,11.11 18.23,10.48 18.23,9.69 18.23,8.89 18.5,8.25 19.03,7.75 19.57,7.25 20.26,7 21.11,7 Z M 28.26,20.13 C 27.18,20.13 26.35,19.82 25.77,19.22 25.18,18.61 24.89,17.76 24.89,16.66 24.89,15.56 25.18,14.71 25.76,14.1 26.34,13.49 27.16,13.18 28.2,13.18 29.24,13.18 30.05,13.49 30.64,14.09 31.24,14.7 31.53,15.53 31.53,16.59 31.53,17.7 31.24,18.57 30.67,19.19 30.09,19.81 29.29,20.13 28.26,20.13 Z M 39.98,10.91 C 39.73,11.09 39.34,11.23 38.8,11.36 39.42,11.46 39.87,11.64 40.13,11.91 40.39,12.17 40.52,12.56 40.52,13.08 40.52,13.24 40.51,13.39 40.5,13.54 40.5,13.54 40.5,13.59 40.5,13.69 40.5,14.05 40.61,14.23 40.82,14.23 40.87,14.23 40.95,14.22 41.06,14.2 41.16,14.17 41.24,14.16 41.3,14.16 41.49,14.16 41.64,14.24 41.76,14.4 41.87,14.56 41.93,14.77 41.93,15.03 41.93,15.32 41.85,15.55 41.68,15.72 41.51,15.89 41.29,15.97 41.01,15.97 40.91,15.97 40.77,15.96 40.57,15.94 40.37,15.92 40.22,15.91 40.13,15.91 40.02,15.91 39.87,15.92 39.66,15.94 39.46,15.96 39.31,15.97 39.2,15.97 38.88,15.97 38.62,15.84 38.43,15.57 38.23,15.31 38.14,14.96 38.14,14.53 38.14,14.48 38.14,14.45 38.15,14.44 L 38.18,13.68 C 38.18,13.68 38.18,13.65 38.18,13.59 38.18,13.14 38.06,12.83 37.83,12.66 37.6,12.48 37.19,12.39 36.59,12.39 36.35,12.39 36.2,12.46 36.14,12.59 36.09,12.68 36.07,12.84 36.07,13.07 L 36.07,13.37 C 36.07,13.96 36.18,14.25 36.4,14.25 36.46,14.25 36.55,14.24 36.67,14.21 36.8,14.18 36.9,14.16 36.97,14.16 37.15,14.16 37.3,14.25 37.43,14.41 37.55,14.57 37.62,14.78 37.62,15.02 37.62,15.65 37.31,15.97 36.71,15.97 36.5,15.97 36.22,15.95 35.86,15.91 35.51,15.86 35.2,15.84 34.94,15.84 34.66,15.84 34.34,15.86 33.98,15.91 33.61,15.95 33.31,15.97 33.05,15.97 32.42,15.97 32.11,15.65 32.11,15.02 32.11,14.78 32.17,14.57 32.31,14.41 32.44,14.25 32.61,14.16 32.81,14.16 32.89,14.16 32.99,14.18 33.13,14.21 33.27,14.24 33.37,14.25 33.43,14.25 33.67,14.25 33.78,13.96 33.78,13.37 L 33.78,9.77 C 33.78,9.49 33.77,9.31 33.76,9.24 33.71,9.01 33.6,8.9 33.43,8.9 33.36,8.9 33.26,8.91 33.13,8.94 32.99,8.97 32.89,8.99 32.81,8.99 32.61,8.99 32.44,8.91 32.31,8.74 32.17,8.58 32.11,8.37 32.11,8.13 32.11,7.85 32.19,7.62 32.36,7.44 32.53,7.26 32.75,7.17 33.02,7.17 33.07,7.17 33.11,7.17 33.13,7.18 L 34.05,7.27 C 34.32,7.3 34.59,7.31 34.89,7.31 35.4,7.31 36.04,7.29 36.82,7.23 37.34,7.2 37.73,7.18 37.98,7.18 38.8,7.18 39.46,7.39 39.94,7.8 40.42,8.21 40.66,8.77 40.66,9.48 40.66,10.13 40.43,10.61 39.98,10.91 Z M 37.03,8.91 C 36.69,8.91 36.46,8.93 36.36,8.98 36.17,9.06 36.07,9.25 36.07,9.53 L 36.07,10.31 C 36.07,10.51 36.1,10.64 36.17,10.7 36.23,10.77 36.36,10.8 36.54,10.8 37.66,10.8 38.23,10.46 38.23,9.8 38.23,9.21 37.83,8.91 37.03,8.91 Z M 44.95,12.37 C 45.19,12.37 45.31,12.53 45.31,12.87 L 45.31,16.79 C 45.31,17.23 45.4,17.45 45.56,17.45 45.59,17.45 45.66,17.44 45.75,17.42 45.84,17.39 45.92,17.38 45.98,17.38 46.34,17.38 46.52,17.61 46.52,18.06 46.52,18.66 46.27,18.96 45.76,18.96 45.67,18.96 45.43,18.94 45.03,18.89 44.78,18.87 44.51,18.85 44.2,18.85 44.04,18.85 43.81,18.87 43.51,18.91 43.2,18.94 42.98,18.96 42.83,18.96 42.6,18.96 42.41,18.88 42.26,18.72 42.11,18.56 42.04,18.35 42.04,18.1 42.04,17.6 42.24,17.36 42.66,17.36 42.66,17.36 42.77,17.38 43,17.44 43.03,17.44 43.06,17.45 43.09,17.45 43.25,17.45 43.32,17.21 43.32,16.72 L 43.32,14.62 C 43.32,14.12 43.25,13.87 43.1,13.87 43.08,13.87 43,13.9 42.87,13.94 42.78,13.96 42.71,13.97 42.66,13.97 42.24,13.97 42.04,13.72 42.04,13.24 42.04,12.98 42.11,12.77 42.26,12.61 42.41,12.45 42.6,12.37 42.84,12.37 42.94,12.37 43.08,12.38 43.26,12.41 43.56,12.45 43.8,12.47 43.99,12.47 44.13,12.47 44.32,12.45 44.56,12.42 44.79,12.38 44.92,12.37 44.95,12.37 Z M 44.21,11.87 C 43.89,11.87 43.61,11.76 43.38,11.52 43.14,11.29 43.03,11.01 43.03,10.69 43.03,10.36 43.14,10.08 43.37,9.85 43.6,9.62 43.88,9.51 44.21,9.51 44.54,9.51 44.82,9.62 45.05,9.85 45.28,10.08 45.39,10.36 45.39,10.69 45.39,11.02 45.28,11.3 45.05,11.53 44.82,11.76 44.54,11.87 44.21,11.87 Z M 50.8,14.43 C 50.8,14.3 50.84,14.17 50.93,14.04 50.73,13.9 50.51,13.84 50.27,13.84 49.88,13.84 49.57,13.99 49.34,14.31 49.1,14.63 48.98,15.05 48.98,15.58 48.98,16.12 49.1,16.56 49.36,16.89 49.61,17.22 49.94,17.38 50.36,17.38 50.78,17.38 51.09,17.15 51.29,16.69 51.41,16.41 51.52,16.23 51.61,16.15 51.73,16.04 51.92,15.99 52.18,15.99 52.47,15.99 52.71,16.08 52.89,16.26 53.07,16.44 53.17,16.66 53.17,16.94 53.17,17.53 52.88,18.04 52.31,18.48 51.73,18.91 51.05,19.13 50.25,19.13 49.23,19.13 48.42,18.81 47.81,18.18 47.2,17.56 46.9,16.71 46.9,15.66 46.9,14.59 47.21,13.74 47.84,13.12 48.46,12.5 49.3,12.18 50.36,12.18 51.12,12.18 51.75,12.36 52.25,12.72 52.75,13.08 53,13.54 53,14.09 53,14.44 52.88,14.72 52.66,14.93 52.43,15.15 52.14,15.25 51.79,15.25 51.49,15.25 51.25,15.18 51.07,15.02 50.89,14.87 50.8,14.68 50.8,14.43 Z M 56.78,10.61 L 56.78,12.99 C 57.15,12.67 57.46,12.45 57.71,12.35 57.97,12.24 58.28,12.18 58.65,12.18 59.46,12.18 60.03,12.44 60.37,12.94 60.59,13.28 60.7,13.81 60.7,14.55 L 60.7,16.79 C 60.7,17.22 60.79,17.44 60.97,17.44 61.03,17.44 61.09,17.43 61.15,17.41 61.2,17.39 61.27,17.38 61.36,17.38 61.74,17.38 61.93,17.6 61.93,18.05 61.93,18.65 61.67,18.96 61.16,18.96 61.01,18.96 60.8,18.94 60.51,18.91 60.22,18.87 60.01,18.85 59.86,18.85 59.72,18.85 59.52,18.87 59.24,18.91 58.97,18.94 58.76,18.96 58.62,18.96 58.41,18.96 58.23,18.88 58.1,18.74 57.96,18.59 57.9,18.39 57.9,18.15 57.9,17.71 58.06,17.48 58.39,17.45 58.54,17.44 58.63,17.4 58.66,17.33 58.7,17.26 58.72,17.15 58.72,16.98 L 58.72,14.99 C 58.72,14.27 58.44,13.91 57.9,13.91 57.15,13.91 56.78,14.43 56.78,15.46 L 56.78,16.99 C 56.78,17.18 56.8,17.29 56.84,17.34 56.88,17.39 56.98,17.42 57.16,17.45 57.42,17.49 57.56,17.71 57.56,18.1 57.56,18.67 57.32,18.96 56.84,18.96 56.74,18.96 56.55,18.94 56.28,18.91 56.02,18.87 55.77,18.85 55.54,18.85 55.36,18.85 55.17,18.87 54.96,18.89 54.61,18.94 54.39,18.96 54.3,18.96 54.06,18.96 53.87,18.88 53.72,18.72 53.58,18.56 53.5,18.35 53.5,18.1 53.5,17.6 53.72,17.36 54.14,17.36 54.19,17.36 54.26,17.37 54.35,17.4 54.45,17.43 54.52,17.45 54.57,17.45 54.72,17.45 54.79,17.21 54.79,16.72 L 54.79,12.39 C 54.79,11.91 54.72,11.66 54.57,11.66 54.51,11.66 54.43,11.68 54.34,11.72 54.28,11.73 54.21,11.74 54.13,11.74 53.71,11.74 53.5,11.5 53.5,11.03 53.5,10.77 53.58,10.56 53.72,10.4 53.87,10.24 54.06,10.16 54.3,10.16 54.41,10.16 54.57,10.17 54.79,10.19 55.01,10.22 55.17,10.23 55.28,10.23 55.55,10.23 55.78,10.22 55.98,10.19 56.17,10.17 56.32,10.16 56.43,10.16 56.66,10.16 56.78,10.31 56.78,10.61 Z M 56.78,10.61" />
    <path id="scratchlogo-text2" stroke="rgb(0, 196, 49)" stroke-width="4" stroke-miterlimit="10" fill="rgb(0, 196, 49)" d="M 8.62,13.01 C 8.39,13 8.27,13.13 8.27,13.4 L 8.27,13.81 C 8.27,14.11 8.4,14.25 8.66,14.25 8.77,14.25 8.9,14.24 9.05,14.22 9.24,14.18 9.4,14.16 9.53,14.16 9.75,14.16 9.92,14.24 10.05,14.4 10.18,14.55 10.25,14.76 10.25,15.02 10.25,15.31 10.16,15.54 9.99,15.71 9.81,15.88 9.59,15.97 9.31,15.97 9.07,15.97 8.71,15.95 8.23,15.91 7.76,15.86 7.4,15.84 7.15,15.84 6.78,15.84 6.47,15.85 6.22,15.88 L 5.58,15.94 C 5.41,15.96 5.29,15.97 5.23,15.97 4.95,15.97 4.73,15.88 4.56,15.71 4.39,15.54 4.31,15.31 4.31,15.02 4.31,14.78 4.37,14.57 4.51,14.41 4.64,14.25 4.81,14.16 5.01,14.16 5.09,14.16 5.2,14.18 5.33,14.21 5.47,14.24 5.57,14.25 5.63,14.25 5.87,14.25 5.98,13.96 5.98,13.37 L 5.98,9.77 C 5.98,9.49 5.98,9.31 5.96,9.24 5.91,9.01 5.81,8.9 5.63,8.9 5.56,8.9 5.46,8.91 5.33,8.94 5.19,8.97 5.09,8.99 5.01,8.99 4.81,8.99 4.64,8.91 4.51,8.74 4.37,8.58 4.31,8.37 4.31,8.13 4.31,7.84 4.39,7.61 4.57,7.44 4.74,7.26 4.97,7.17 5.24,7.17 5.25,7.17 5.26,7.17 5.28,7.17 5.3,7.18 5.32,7.18 5.33,7.18 5.54,7.18 5.86,7.2 6.28,7.25 6.71,7.29 7.03,7.31 7.25,7.31 7.66,7.31 8.12,7.29 8.61,7.26 9.23,7.22 9.59,7.19 9.68,7.19 10.62,7.19 11.39,7.46 11.97,7.99 12.56,8.53 12.85,9.23 12.85,10.09 12.85,11 12.55,11.71 11.94,12.24 11.34,12.77 10.52,13.03 9.48,13.03 9.39,13.03 9.23,13.03 8.99,13.02 L 8.62,13.01 Z M 17.11,19.13 C 16.4,19.13 15.93,18.84 15.68,18.27 15.08,18.84 14.36,19.13 13.53,19.13 12.84,19.13 12.3,18.95 11.89,18.59 11.48,18.23 11.28,17.75 11.28,17.15 11.28,16.24 11.67,15.65 12.46,15.38 12.8,15.27 13.19,15.17 13.63,15.1 14.25,14.99 14.66,14.87 14.88,14.74 15.11,14.6 15.22,14.4 15.22,14.12 15.22,13.92 15.13,13.75 14.96,13.62 14.79,13.49 14.58,13.42 14.33,13.42 14.05,13.42 13.9,13.51 13.9,13.69 13.9,13.75 13.91,13.81 13.92,13.87 L 13.92,13.93 C 13.92,14.17 13.81,14.37 13.61,14.54 13.41,14.7 13.15,14.78 12.85,14.78 12.5,14.78 12.22,14.68 11.99,14.47 11.77,14.26 11.65,14 11.65,13.69 11.65,13.22 11.9,12.86 12.39,12.59 12.89,12.32 13.57,12.18 14.44,12.18 15.37,12.18 16.07,12.33 16.53,12.61 17.02,12.93 17.27,13.51 17.27,14.36 L 17.27,17.05 C 17.27,17.32 17.34,17.46 17.48,17.46 17.55,17.46 17.61,17.46 17.67,17.45 17.7,17.44 17.73,17.44 17.76,17.44 17.96,17.44 18.13,17.51 18.27,17.64 18.41,17.78 18.48,17.95 18.48,18.15 18.48,18.44 18.35,18.67 18.1,18.85 17.84,19.04 17.51,19.13 17.11,19.13 Z M 15.23,16.34 L 15.23,16.06 C 15.17,16.09 14.79,16.2 14.09,16.38 13.61,16.5 13.37,16.69 13.37,16.94 13.37,17.34 13.6,17.54 14.07,17.54 14.84,17.54 15.23,17.14 15.23,16.34 Z M 21.11,7 C 22.01,7 22.72,7.31 23.24,7.92 23.25,7.62 23.31,7.41 23.41,7.3 23.52,7.19 23.71,7.13 23.98,7.13 24.53,7.13 24.81,7.36 24.81,7.83 24.81,7.96 24.8,8.15 24.77,8.4 24.75,8.66 24.73,8.85 24.73,8.98 24.73,9.05 24.74,9.17 24.76,9.31 24.78,9.46 24.79,9.57 24.79,9.65 L 24.79,9.72 C 24.79,10.23 24.49,10.48 23.9,10.48 23.41,10.48 23.11,10.28 23.02,9.86 L 22.95,9.59 C 22.82,9.02 22.36,8.74 21.57,8.74 20.83,8.74 20.46,9 20.46,9.52 20.46,9.79 20.54,9.97 20.7,10.07 20.86,10.16 21.26,10.28 21.91,10.41 23,10.62 23.8,10.95 24.29,11.38 24.79,11.81 25.03,12.4 25.03,13.15 25.03,14.02 24.73,14.74 24.14,15.3 23.54,15.86 22.77,16.14 21.85,16.14 21.08,16.14 20.33,15.86 19.62,15.31 19.6,15.79 19.34,16.03 18.84,16.03 18.28,16.03 18,15.76 18,15.2 18,15.02 18.01,14.83 18.04,14.62 18.07,14.34 18.09,14.13 18.09,13.98 18.09,13.89 18.08,13.74 18.06,13.54 18.04,13.34 18.03,13.19 18.03,13.1 18.03,12.87 18.12,12.69 18.3,12.54 18.49,12.4 18.73,12.33 19.03,12.33 19.36,12.33 19.59,12.4 19.73,12.54 19.88,12.69 19.98,12.95 20.04,13.34 20.14,13.99 20.63,14.32 21.52,14.32 21.89,14.32 22.18,14.23 22.39,14.06 22.61,13.89 22.72,13.66 22.72,13.38 22.72,13.08 22.62,12.87 22.43,12.74 22.24,12.61 21.79,12.46 21.07,12.29 L 20.21,12.08 C 19.84,11.99 19.49,11.82 19.17,11.58 18.54,11.11 18.23,10.48 18.23,9.69 18.23,8.89 18.5,8.25 19.03,7.75 19.57,7.25 20.26,7 21.11,7 Z M 28.26,20.13 C 27.18,20.13 26.35,19.82 25.77,19.22 25.18,18.61 24.89,17.76 24.89,16.66 24.89,15.56 25.18,14.71 25.76,14.1 26.34,13.49 27.16,13.18 28.2,13.18 29.24,13.18 30.05,13.49 30.64,14.09 31.24,14.7 31.53,15.53 31.53,16.59 31.53,17.7 31.24,18.57 30.67,19.19 30.09,19.81 29.29,20.13 28.26,20.13 Z M 39.98,10.91 C 39.73,11.09 39.87,11.64 40.13,11.91 40.39,12.17 40.52,12.56 40.52,13.08 40.52,13.24 40.51,13.39 40.5,13.54 40.5,13.54 40.5,13.59 40.5,13.69 40.5,14.05 40.61,14.23 40.82,14.23 40.87,14.23 40.95,14.22 41.06,14.2 41.16,14.17 41.24,14.16 41.3,14.16 41.49,14.16 41.64,14.24 41.76,14.4 41.87,14.56 41.93,14.77 41.93,15.03 41.93,15.32 41.85,15.55 41.68,15.72 41.51,15.89 41.29,15.97 41.01,15.97 40.91,15.97 40.77,15.96 40.57,15.94 40.37,15.92 40.22,15.91 40.13,15.91 40.02,15.91 39.87,15.92 39.66,15.94 39.46,15.96 39.31,15.97 39.2,15.97 38.88,15.97 38.62,15.84 38.43,15.57 38.23,15.31 38.14,14.96 38.14,14.53 38.14,14.48 38.14,14.45 38.15,14.44 L 38.18,13.68 C 38.18,13.68 38.18,13.65 38.18,13.59 38.18,13.14 38.06,12.83 37.83,12.66 37.6,12.48 37.19,12.39 36.59,12.39 36.35,12.39 36.2,12.46 36.14,12.59 36.09,12.68 36.07,12.84 36.07,13.07 L 36.07,13.37 C 36.07,13.96 36.18,14.25 36.4,14.25 36.46,14.25 36.55,14.24 36.67,14.21 36.8,14.18 36.9,14.16 36.97,14.16 37.15,14.16 37.3,14.25 37.43,14.41 37.55,14.57 37.62,14.78 37.62,15.02 37.62,15.65 37.31,15.97 36.71,15.97 36.5,15.97 36.22,15.95 35.86,15.91 35.51,15.86 35.2,15.84 34.94,15.84 34.66,15.84 34.34,15.86 33.98,15.91 33.61,15.95 33.31,15.97 33.05,15.97 32.42,15.97 32.11,15.65 32.11,15.02 32.11,14.78 32.17,14.57 32.31,14.41 32.44,14.25 32.61,14.16 32.81,14.16 32.89,14.16 32.99,14.18 33.13,14.21 33.27,14.24 33.37,14.25 33.43,14.25 33.67,14.25 33.78,13.96 33.78,13.37 L 33.78,9.77 C 33.78,9.49 33.77,9.31 33.76,9.24 33.71,9.01 33.6,8.9 33.43,8.9 33.36,8.9 33.26,8.91 33.13,8.94 32.99,8.97 32.89,8.99 32.81,8.99 32.61,8.99 32.44,8.91 32.31,8.74 32.17,8.58 32.11,8.37 32.11,8.13 32.11,7.85 32.19,7.62 32.36,7.44 32.53,7.26 32.75,7.17 33.02,7.17 33.07,7.17 33.11,7.17 33.13,7.18 L 34.05,7.27 C 34.32,7.3 34.59,7.31 34.89,7.31 35.4,7.31 36.04,7.29 36.82,7.23 37.34,7.2 37.73,7.18 37.98,7.18 38.8,7.18 39.46,7.39 39.94,7.8 40.42,8.21 40.66,8.77 40.66,9.48 40.66,10.13 40.43,10.61 39.98,10.91 Z M 44.95,12.37 C 45.19,12.37 45.31,12.53 45.31,12.87 L 45.31,16.79 C 45.31,17.23 45.4,17.45 45.56,17.45 45.59,17.45 45.66,17.44 45.75,17.42 45.84,17.39 45.92,17.38 45.98,17.38 46.34,17.38 46.52,17.61 46.52,18.06 46.52,18.66 46.27,18.96 45.76,18.96 45.67,18.96 45.43,18.94 45.03,18.89 44.78,18.87 44.51,18.85 44.2,18.85 44.04,18.85 43.81,18.87 43.51,18.91 43.2,18.94 42.98,18.96 42.83,18.96 42.6,18.96 42.41,18.88 42.26,18.72 42.11,18.56 42.04,18.35 42.04,18.1 42.04,17.6 42.24,17.36 42.66,17.36 42.66,17.36 42.77,17.38 43,17.44 43.03,17.44 43.06,17.45 43.09,17.45 43.25,17.45 43.32,17.21 43.32,16.72 L 43.32,14.62 C 43.32,14.12 43.25,13.87 43.1,13.87 43.08,13.87 43,13.9 42.87,13.94 42.78,13.96 42.71,13.97 42.66,13.97 42.24,13.97 42.04,13.72 42.04,13.24 42.04,12.98 42.11,12.77 42.26,12.61 42.41,12.45 42.6,12.37 42.84,12.37 42.94,12.37 43.08,12.38 43.26,12.41 43.56,12.45 43.8,12.47 43.99,12.47 44.13,12.47 44.32,12.45 44.56,12.42 44.79,12.38 44.92,12.37 44.95,12.37 Z M 44.21,11.87 C 43.89,11.87 43.61,11.76 43.38,11.52 43.14,11.29 43.03,11.01 43.03,10.69 43.03,10.36 43.14,10.08 43.37,9.85 43.6,9.62 43.88,9.51 44.21,9.51 44.54,9.51 44.82,9.62 45.05,9.85 45.28,10.08 45.39,10.36 45.39,10.69 45.39,11.02 45.28,11.3 45.05,11.53 44.82,11.76 44.54,11.87 44.21,11.87 Z M 50.8,14.43 C 50.8,14.3 50.84,14.17 50.93,14.04 50.73,13.9 50.51,13.84 50.27,13.84 49.88,13.84 49.57,13.99 49.34,14.31 49.1,14.63 48.98,15.05 48.98,15.58 48.98,16.12 49.1,16.56 49.36,16.89 49.61,17.22 49.94,17.38 50.36,17.38 50.78,17.38 51.09,17.15 51.29,16.69 51.41,16.41 51.52,16.23 51.61,16.15 51.73,16.04 51.92,15.99 52.18,15.99 52.47,15.99 52.71,16.08 52.89,16.26 53.07,16.44 53.17,16.66 53.17,16.94 53.17,17.53 52.88,18.04 52.31,18.48 51.73,18.91 51.05,19.13 50.25,19.13 49.23,19.13 48.42,18.81 47.81,18.18 47.2,17.56 46.9,16.71 46.9,15.66 46.9,14.59 47.21,13.74 47.84,13.12 48.46,12.5 49.3,12.18 50.36,12.18 51.12,12.18 51.75,12.36 52.25,12.72 52.75,13.08 53,13.54 53,14.09 53,14.44 52.88,14.72 52.66,14.93 52.43,15.15 52.14,15.25 51.79,15.25 51.49,15.25 51.25,15.18 51.07,15.02 50.89,14.87 50.8,14.68 50.8,14.43 Z M 56.78,10.61 L 56.78,12.99 C 57.15,12.67 57.46,12.45 57.71,12.35 57.97,12.24 58.28,12.18 58.65,12.18 59.46,12.18 60.03,12.44 60.37,12.94 60.59,13.28 60.7,13.81 60.7,14.55 L 60.7,16.79 C 60.7,17.22 60.79,17.44 60.97,17.44 61.03,17.44 61.09,17.43 61.15,17.41 61.2,17.39 61.27,17.38 61.36,17.38 61.74,17.38 61.93,17.6 61.93,18.05 61.93,18.65 61.67,18.96 61.16,18.96 61.01,18.96 60.8,18.94 60.51,18.91 60.22,18.87 60.01,18.85 59.86,18.85 59.72,18.85 59.52,18.87 59.24,18.91 58.97,18.94 58.76,18.96 58.62,18.96 58.41,18.96 58.23,18.88 58.1,18.74 57.96,18.59 57.9,18.39 57.9,18.15 57.9,17.71 58.06,17.48 58.39,17.45 58.54,17.44 58.63,17.4 58.66,17.33 58.7,17.26 58.72,17.15 58.72,16.98 L 58.72,14.99 C 58.72,14.27 58.44,13.91 57.9,13.91 57.15,13.91 56.78,14.43 56.78,15.46 L 56.78,16.99 C 56.78,17.18 56.8,17.29 56.84,17.34 56.88,17.39 56.98,17.42 57.16,17.45 57.42,17.49 57.56,17.71 57.56,18.1 57.56,18.67 57.32,18.96 56.84,18.96 56.74,18.96 56.55,18.94 56.28,18.91 56.02,18.87 55.77,18.85 55.54,18.85 55.36,18.85 55.17,18.87 54.96,18.89 54.61,18.94 54.39,18.96 54.3,18.96 54.06,18.96 53.87,18.88 53.72,18.72 53.58,18.56 53.5,18.35 53.5,18.1 53.5,17.6 53.72,17.36 54.14,17.36 54.19,17.36 54.26,17.37 54.35,17.4 54.45,17.43 54.52,17.45 54.57,17.45 54.72,17.45 54.79,17.21 54.79,16.72 L 54.79,12.39 C 54.79,11.91 54.72,11.66 54.57,11.66 54.51,11.66 54.43,11.68 54.34,11.72 54.28,11.73 54.21,11.74 54.13,11.74 53.71,11.74 53.5,11.5 53.5,11.03 53.5,10.77 53.58,10.56 53.72,10.4 53.87,10.24 54.06,10.16 54.3,10.16 54.41,10.16 54.57,10.17 54.79,10.19 55.01,10.22 55.17,10.23 55.28,10.23 55.55,10.23 55.78,10.22 55.98,10.19 56.17,10.17 56.32,10.16 56.43,10.16 56.66,10.16 56.78,10.31 56.78,10.61 Z M 56.78,10.61" />
    <path id="scratchlogo-text" stroke="none" fill="rgb(255, 255, 255)" d="M 8.62,13.01 C 8.39,13 8.27,13.13 8.27,13.4 L 8.27,13.81 C 8.27,14.11 8.4,14.25 8.66,14.25 8.77,14.25 8.9,14.24 9.05,14.22 9.24,14.18 9.4,14.16 9.53,14.16 9.75,14.16 9.92,14.24 10.05,14.4 10.18,14.55 10.25,14.76 10.25,15.02 10.25,15.31 10.16,15.54 9.99,15.71 9.81,15.88 9.59,15.97 9.31,15.97 9.07,15.97 8.71,15.95 8.23,15.91 7.76,15.86 7.4,15.84 7.15,15.84 6.78,15.84 6.47,15.85 6.22,15.88 L 5.58,15.94 C 5.41,15.96 5.29,15.97 5.23,15.97 4.95,15.97 4.73,15.88 4.56,15.71 4.39,15.54 4.31,15.31 4.31,15.02 4.31,14.78 4.37,14.57 4.51,14.41 4.64,14.25 4.81,14.16 5.01,14.16 5.09,14.16 5.2,14.18 5.33,14.21 5.47,14.24 5.57,14.25 5.63,14.25 5.87,14.25 5.98,13.96 5.98,13.37 L 5.98,9.77 C 5.98,9.49 5.98,9.31 5.96,9.24 5.91,9.01 5.81,8.9 5.63,8.9 5.56,8.9 5.46,8.91 5.33,8.94 5.19,8.97 5.09,8.99 5.01,8.99 4.81,8.99 4.64,8.91 4.51,8.74 4.37,8.58 4.31,8.37 4.31,8.13 4.31,7.84 4.39,7.61 4.57,7.44 4.74,7.26 4.97,7.17 5.24,7.17 5.25,7.17 5.26,7.17 5.28,7.17 5.3,7.18 5.32,7.18 5.33,7.18 5.54,7.18 5.86,7.2 6.28,7.25 6.71,7.29 7.03,7.31 7.25,7.31 7.66,7.31 8.12,7.29 8.61,7.26 9.23,7.22 9.59,7.19 9.68,7.19 10.62,7.19 11.39,7.46 11.97,7.99 12.56,8.53 12.85,9.23 12.85,10.09 12.85,11 12.55,11.71 11.94,12.24 11.34,12.77 10.52,13.03 9.48,13.03 9.39,13.03 9.23,13.03 8.99,13.02 L 8.62,13.01 Z M 8.27,10.81 C 8.27,11.05 8.29,11.2 8.34,11.26 8.38,11.31 8.5,11.35 8.69,11.36 L 8.9,11.37 C 9.92,11.43 10.43,11.03 10.43,10.16 10.43,9.33 9.97,8.91 9.05,8.91 8.83,8.91 8.67,8.92 8.58,8.95 8.43,8.99 8.33,9.1 8.3,9.26 8.28,9.35 8.27,9.48 8.27,9.65 L 8.27,10.81 Z M 17.11,19.13 C 16.4,19.13 15.93,18.84 15.68,18.27 15.08,18.84 14.36,19.13 13.53,19.13 12.84,19.13 12.3,18.95 11.89,18.59 11.48,18.23 11.28,17.75 11.28,17.15 11.28,16.24 11.67,15.65 12.46,15.38 12.8,15.27 13.19,15.17 13.63,15.1 14.25,14.99 14.66,14.87 14.88,14.74 15.11,14.6 15.22,14.4 15.22,14.12 15.22,13.92 15.13,13.75 14.96,13.62 14.79,13.49 14.58,13.42 14.33,13.42 14.05,13.42 13.9,13.51 13.9,13.69 13.9,13.75 13.91,13.81 13.92,13.87 L 13.92,13.93 C 13.92,14.17 13.81,14.37 13.61,14.54 13.41,14.7 13.15,14.78 12.85,14.78 12.5,14.78 12.22,14.68 11.99,14.47 11.77,14.26 11.65,14 11.65,13.69 11.65,13.22 11.9,12.86 12.39,12.59 12.89,12.32 13.57,12.18 14.44,12.18 15.37,12.18 16.07,12.33 16.53,12.61 17.02,12.93 17.27,13.51 17.27,14.36 L 17.27,17.05 C 17.27,17.32 17.34,17.46 17.48,17.46 17.55,17.46 17.61,17.46 17.67,17.45 17.7,17.44 17.73,17.44 17.76,17.44 17.96,17.44 18.13,17.51 18.27,17.64 18.41,17.78 18.48,17.95 18.48,18.15 18.48,18.44 18.35,18.67 18.1,18.85 17.84,19.04 17.51,19.13 17.11,19.13 Z M 15.23,16.34 L 15.23,16.06 C 15.17,16.09 14.79,16.2 14.09,16.38 13.61,16.5 13.37,16.69 13.37,16.94 13.37,17.34 13.6,17.54 14.07,17.54 14.84,17.54 15.23,17.14 15.23,16.34 Z M 21.11,7 C 22.01,7 22.72,7.31 23.24,7.92 23.25,7.62 23.31,7.41 23.41,7.3 23.52,7.19 23.71,7.13 23.98,7.13 24.53,7.13 24.81,7.36 24.81,7.83 24.81,7.96 24.8,8.15 24.77,8.4 24.75,8.66 24.73,8.85 24.73,8.98 24.73,9.05 24.74,9.17 24.76,9.31 24.78,9.46 24.79,9.57 24.79,9.65 L 24.79,9.72 C 24.79,10.23 24.49,10.48 23.9,10.48 23.41,10.48 23.11,10.28 23.02,9.86 L 22.95,9.59 C 22.82,9.02 22.36,8.74 21.57,8.74 20.83,8.74 20.46,9 20.46,9.52 20.46,9.79 20.54,9.97 20.7,10.07 20.86,10.16 21.26,10.28 21.91,10.41 23,10.62 23.8,10.95 24.29,11.38 24.79,11.81 25.03,12.4 25.03,13.15 25.03,14.02 24.73,14.74 24.14,15.3 23.54,15.86 22.77,16.14 21.85,16.14 21.08,16.14 20.33,15.86 19.62,15.31 19.6,15.79 19.34,16.03 18.84,16.03 18.28,16.03 18,15.76 18,15.2 18,15.02 18.01,14.83 18.04,14.62 18.07,14.34 18.09,14.13 18.09,13.98 18.09,13.89 18.08,13.74 18.06,13.54 18.04,13.34 18.03,13.19 18.03,13.1 18.03,12.87 18.12,12.69 18.3,12.54 18.49,12.4 18.73,12.33 19.03,12.33 19.36,12.33 19.59,12.4 19.73,12.54 19.88,12.69 19.98,12.95 20.04,13.34 20.14,13.99 20.63,14.32 21.52,14.32 21.89,14.32 22.18,14.23 22.39,14.06 22.61,13.89 22.72,13.66 22.72,13.38 22.72,13.08 22.62,12.87 22.43,12.74 22.24,12.61 21.79,12.46 21.07,12.29 L 20.21,12.08 C 19.84,11.99 19.49,11.82 19.17,11.58 18.54,11.11 18.23,10.48 18.23,9.69 18.23,8.89 18.5,8.25 19.03,7.75 19.57,7.25 20.26,7 21.11,7 Z M 28.26,20.13 C 27.18,20.13 26.35,19.82 25.77,19.22 25.18,18.61 24.89,17.76 24.89,16.66 24.89,15.56 25.18,14.71 25.76,14.1 26.34,13.49 27.16,13.18 28.2,13.18 29.24,13.18 30.05,13.49 30.64,14.09 31.24,14.7 31.53,15.53 31.53,16.59 31.53,17.7 31.24,18.57 30.67,19.19 30.09,19.81 29.29,20.13 28.26,20.13 Z M 28.2,14.78 C 27.82,14.78 27.52,14.95 27.3,15.28 27.08,15.62 26.97,16.07 26.97,16.66 26.97,17.24 27.08,17.7 27.3,18.03 27.52,18.36 27.83,18.53 28.23,18.53 29.04,18.53 29.44,17.9 29.44,16.66 29.44,15.41 29.03,14.78 28.2,14.78 Z M 39.98,10.91 C 39.73,11.09 39.34,11.23 38.8,11.36 39.42,11.46 39.87,11.64 40.13,11.91 40.39,12.17 40.52,12.56 40.52,13.08 40.52,13.24 40.51,13.39 40.5,13.54 40.5,13.54 40.5,13.59 40.5,13.69 40.5,14.05 40.61,14.23 40.82,14.23 40.87,14.23 40.95,14.22 41.06,14.2 41.16,14.17 41.24,14.16 41.3,14.16 41.49,14.16 41.64,14.24 41.76,14.4 41.87,14.56 41.93,14.77 41.93,15.03 41.93,15.32 41.85,15.55 41.68,15.72 41.51,15.89 41.29,15.97 41.01,15.97 40.91,15.97 40.77,15.96 40.57,15.94 40.37,15.92 40.22,15.91 40.13,15.91 40.02,15.91 39.87,15.92 39.66,15.94 39.46,15.96 39.31,15.97 39.2,15.97 38.88,15.97 38.62,15.84 38.43,15.57 38.23,15.31 38.14,14.96 38.14,14.53 38.14,14.48 38.14,14.45 38.15,14.44 L 38.18,13.68 C 38.18,13.68 38.18,13.65 38.18,13.59 38.18,13.14 38.06,12.83 37.83,12.66 37.6,12.48 37.19,12.39 36.59,12.39 36.35,12.39 36.2,12.46 36.14,12.59 36.09,12.68 36.07,12.84 36.07,13.07 L 36.07,13.37 C 36.07,13.96 36.18,14.25 36.4,14.25 36.46,14.25 36.55,14.24 36.67,14.21 36.8,14.18 36.9,14.16 36.97,14.16 37.15,14.16 37.3,14.25 37.43,14.41 37.55,14.57 37.62,14.78 37.62,15.02 37.62,15.65 37.31,15.97 36.71,15.97 36.5,15.97 36.22,15.95 35.86,15.91 35.51,15.86 35.2,15.84 34.94,15.84 34.66,15.84 34.34,15.86 33.98,15.91 33.61,15.95 33.31,15.97 33.05,15.97 32.42,15.97 32.11,15.65 32.11,15.02 32.11,14.78 32.17,14.57 32.31,14.41 32.44,14.25 32.61,14.16 32.81,14.16 32.89,14.16 32.99,14.18 33.13,14.21 33.27,14.24 33.37,14.25 33.43,14.25 33.67,14.25 33.78,13.96 33.78,13.37 L 33.78,9.77 C 33.78,9.49 33.77,9.31 33.76,9.24 33.71,9.01 33.6,8.9 33.43,8.9 33.36,8.9 33.26,8.91 33.13,8.94 32.99,8.97 32.89,8.99 32.81,8.99 32.61,8.99 32.44,8.91 32.31,8.74 32.17,8.58 32.11,8.37 32.11,8.13 32.11,7.85 32.19,7.62 32.36,7.44 32.53,7.26 32.75,7.17 33.02,7.17 33.07,7.17 33.11,7.17 33.13,7.18 L 34.05,7.27 C 34.32,7.3 34.59,7.31 34.89,7.31 35.4,7.31 36.04,7.29 36.82,7.23 37.34,7.2 37.73,7.18 37.98,7.18 38.8,7.18 39.46,7.39 39.94,7.8 40.42,8.21 40.66,8.77 40.66,9.48 40.66,10.13 40.43,10.61 39.98,10.91 Z M 37.03,8.91 C 36.69,8.91 36.46,8.93 36.36,8.98 36.17,9.06 36.07,9.25 36.07,9.53 L 36.07,10.31 C 36.07,10.51 36.1,10.64 36.17,10.7 36.23,10.77 36.36,10.8 36.54,10.8 37.66,10.8 38.23,10.46 38.23,9.8 38.23,9.21 37.83,8.91 37.03,8.91 Z M 44.95,12.37 C 45.19,12.37 45.31,12.53 45.31,12.87 L 45.31,16.79 C 45.31,17.23 45.4,17.45 45.56,17.45 45.59,17.45 45.66,17.44 45.75,17.42 45.84,17.39 45.92,17.38 45.98,17.38 46.34,17.38 46.52,17.61 46.52,18.06 46.52,18.66 46.27,18.96 45.76,18.96 45.67,18.96 45.43,18.94 45.03,18.89 44.78,18.87 44.51,18.85 44.2,18.85 44.04,18.85 43.81,18.87 43.51,18.91 43.2,18.94 42.98,18.96 42.83,18.96 42.6,18.96 42.41,18.88 42.26,18.72 42.11,18.56 42.04,18.35 42.04,18.1 42.04,17.6 42.24,17.36 42.66,17.36 42.66,17.36 42.77,17.38 43,17.44 43.03,17.44 43.06,17.45 43.09,17.45 43.25,17.45 43.32,17.21 43.32,16.72 L 43.32,14.62 C 43.32,14.12 43.25,13.87 43.1,13.87 43.08,13.87 43,13.9 42.87,13.94 42.78,13.96 42.71,13.97 42.66,13.97 42.24,13.97 42.04,13.72 42.04,13.24 42.04,12.98 42.11,12.77 42.26,12.61 42.41,12.45 42.6,12.37 42.84,12.37 42.94,12.37 43.08,12.38 43.26,12.41 43.56,12.45 43.8,12.47 43.99,12.47 44.13,12.47 44.32,12.45 44.56,12.42 44.79,12.38 44.92,12.37 44.95,12.37 Z M 44.21,11.87 C 43.89,11.87 43.61,11.76 43.38,11.52 43.14,11.29 43.03,11.01 43.03,10.69 43.03,10.36 43.14,10.08 43.37,9.85 43.6,9.62 43.88,9.51 44.21,9.51 44.54,9.51 44.82,9.62 45.05,9.85 45.28,10.08 45.39,10.36 45.39,10.69 45.39,11.02 45.28,11.3 45.05,11.53 44.82,11.76 44.54,11.87 44.21,11.87 Z M 50.8,14.43 C 50.8,14.3 50.84,14.17 50.93,14.04 50.73,13.9 50.51,13.84 50.27,13.84 49.88,13.84 49.57,13.99 49.34,14.31 49.1,14.63 48.98,15.05 48.98,15.58 48.98,16.12 49.1,16.56 49.36,16.89 49.61,17.22 49.94,17.38 50.36,17.38 50.78,17.38 51.09,17.15 51.29,16.69 51.41,16.41 51.52,16.23 51.61,16.15 51.73,16.04 51.92,15.99 52.18,15.99 52.47,15.99 52.71,16.08 52.89,16.26 53.07,16.44 53.17,16.66 53.17,16.94 53.17,17.53 52.88,18.04 52.31,18.48 51.73,18.91 51.05,19.13 50.25,19.13 49.23,19.13 48.42,18.81 47.81,18.18 47.2,17.56 46.9,16.71 46.9,15.66 46.9,14.59 47.21,13.74 47.84,13.12 48.46,12.5 49.3,12.18 50.36,12.18 51.12,12.18 51.75,12.36 52.25,12.72 52.75,13.08 53,13.54 53,14.09 53,14.44 52.88,14.72 52.66,14.93 52.43,15.15 52.14,15.25 51.79,15.25 51.49,15.25 51.25,15.18 51.07,15.02 50.89,14.87 50.8,14.68 50.8,14.43 Z M 56.78,10.61 L 56.78,12.99 C 57.15,12.67 57.46,12.45 57.71,12.35 57.97,12.24 58.28,12.18 58.65,12.18 59.46,12.18 60.03,12.44 60.37,12.94 60.59,13.28 60.7,13.81 60.7,14.55 L 60.7,16.79 C 60.7,17.22 60.79,17.44 60.97,17.44 61.03,17.44 61.09,17.43 61.15,17.41 61.2,17.39 61.27,17.38 61.36,17.38 61.74,17.38 61.93,17.6 61.93,18.05 61.93,18.65 61.67,18.96 61.16,18.96 61.01,18.96 60.8,18.94 60.51,18.91 60.22,18.87 60.01,18.85 59.86,18.85 59.72,18.85 59.52,18.87 59.24,18.91 58.97,18.94 58.76,18.96 58.62,18.96 58.41,18.96 58.23,18.88 58.1,18.74 57.96,18.59 57.9,18.39 57.9,18.15 57.9,17.71 58.06,17.48 58.39,17.45 58.54,17.44 58.63,17.4 58.66,17.33 58.7,17.26 58.72,17.15 58.72,16.98 L 58.72,14.99 C 58.72,14.27 58.44,13.91 57.9,13.91 57.15,13.91 56.78,14.43 56.78,15.46 L 56.78,16.99 C 56.78,17.18 56.8,17.29 56.84,17.34 56.88,17.39 56.98,17.42 57.16,17.45 57.42,17.49 57.56,17.71 57.56,18.1 57.56,18.67 57.32,18.96 56.84,18.96 56.74,18.96 56.55,18.94 56.28,18.91 56.02,18.87 55.77,18.85 55.54,18.85 55.36,18.85 55.17,18.87 54.96,18.89 54.61,18.94 54.39,18.96 54.3,18.96 54.06,18.96 53.87,18.88 53.72,18.72 53.58,18.56 53.5,18.35 53.5,18.1 53.5,17.6 53.72,17.36 54.14,17.36 54.19,17.36 54.26,17.37 54.35,17.4 54.45,17.43 54.52,17.45 54.57,17.45 54.72,17.45 54.79,17.21 54.79,16.72 L 54.79,12.39 C 54.79,11.91 54.72,11.66 54.57,11.66 54.51,11.66 54.43,11.68 54.34,11.72 54.28,11.73 54.21,11.74 54.13,11.74 53.71,11.74 53.5,11.5 53.5,11.03 53.5,10.77 53.58,10.56 53.72,10.4 53.87,10.24 54.06,10.16 54.3,10.16 54.41,10.16 54.57,10.17 54.79,10.19 55.01,10.22 55.17,10.23 55.28,10.23 55.55,10.23 55.78,10.22 55.98,10.19 56.17,10.17 56.32,10.16 56.43,10.16 56.66,10.16 56.78,10.31 56.78,10.61 Z M 56.78,10.61" />
</svg>
