<svg version="1.1" xmlns="http://www.w3.org/2000/svg" xmlns:xlink="http://www.w3.org/1999/xlink" width="71.37739" height="123.4148" viewBox="0,0,71.37739,123.4148"><g transform="translate(-199.04794,-116.39113)"><g data-paper-data="{&quot;isPaintingLayer&quot;:true}" fill="none" fill-rule="nonzero" stroke="none" stroke-width="none" stroke-linecap="butt" stroke-linejoin="miter" stroke-miterlimit="10" stroke-dasharray="" stroke-dashoffset="0" font-family="none" font-weight="none" font-size="none" text-anchor="none" style="mix-blend-mode: normal"><path d="M247.63127,136.97243c2.55077,0.31638 5.14276,0.08807 7.70931,0.14768c0.4192,0.00974 4.15474,-0.02197 4.71381,0.40058c1.17346,0.88689 1.10351,7.03901 1.04553,7.96624c-0.24241,3.87648 0,7.84849 0,11.73363c-0.07416,4.98413 -0.15195,20.20776 -0.01461,21.3668c0.90188,1.10623 1.91105,1.03889 2.7454,0.9346c2.58823,-0.21924 4.34334,0.05244 5.95737,0.27563c0.95571,3.35778 0.49173,6.13292 0.49173,8.38672c0,6.25182 0.47955,12.05659 -0.30245,18.68459c-0.9171,1.0658 0.10282,3.0768 -1.00129,3.9474c-0.07068,0.05573 -3.31173,-0.28404 -3.54739,-0.26931c-0.68937,0.04311 -3.03713,0.64744 -3.04434,0.7628c-0.10254,1.64139 -0.53006,3.26572 -0.63256,4.90486c-0.21712,3.47204 0.66437,5.05058 -1.25,7.71495c-0.25358,0.35292 -2.11917,0.00365 -2.55374,0c-1.75077,-0.01471 -3.45926,0.32593 -5.21495,0.32593c-4.76692,0 -9.63498,-0.29686 -14.39096,-0.01529c-3.49912,0.20716 -5.1954,0.83995 -8.24232,-1.87837c-1.69012,-1.50785 -0.60246,-7.28069 -0.87017,-9.42241c-0.01494,-0.13223 -0.87917,-3.02247 -1.26755,-3.02504c-1.76016,-0.01165 -3.45986,-0.31432 -5.21495,-0.32593c-5.19763,-0.03439 -10.44865,-0.65187 -15.64484,-0.65187c-2.22776,0 -3.73587,0.11711 -5.94554,-1.0469c-3.06869,-1.61653 -1.93219,-6.34638 -1.7694,-8.94958c0.41523,-6.64022 -1.31336,-12.89655 4.48482,-17.72836c4.30171,-3.23583 15.16301,-18.5415 17.0303,-21.80926c1.49854,-2.57352 12.25332,-20.27274 12.25332,-20.27274l2.57479,-1.60924c0.04351,-0.02819 0.08795,-0.05507 0.13326,-0.08057c0.63969,-0.39263 3.15834,-1.18998 4.29144,-0.26796c0,0 4.78374,-0.49872 7.47598,-0.19958z" data-paper-data="{&quot;origPos&quot;:null}" fill="#000000" stroke-width="0.5"/><text transform="translate(210.61129,213.12164) scale(2.22369,2.22369)" font-size="40" xml:space="preserve" data-paper-data="{&quot;origPos&quot;:null}" fill="#ffffff" fill-rule="nonzero" stroke="none" stroke-width="1" stroke-linecap="butt" stroke-linejoin="miter" stroke-miterlimit="10" stroke-dasharray="" stroke-dashoffset="0" font-family="Sans Serif" font-weight="normal" text-anchor="start" style="mix-blend-mode: normal"><tspan x="0" dy="0">4</tspan></text></g></g></svg>