<svg version="1.1" xmlns="http://www.w3.org/2000/svg" xmlns:xlink="http://www.w3.org/1999/xlink" width="90.63323" height="54.54801"><g transform="translate(-185.83587,-152.78868)"><g data-paper-data="{&quot;isPaintingLayer&quot;:true}" fill="none" fill-rule="nonzero" stroke="none" stroke-width="none" stroke-linecap="none" stroke-linejoin="miter" stroke-miterlimit="10" stroke-dasharray="" stroke-dashoffset="0" font-family="none" font-weight="none" font-size="none" text-anchor="none" style="mix-blend-mode: normal"><path d="M255.66695,194.10217l-30.89027,-28.90553" data-paper-data="{&quot;origPos&quot;:null,&quot;origRot&quot;:0}" stroke="#000000" stroke-width="22.5" stroke-linecap="round"/><path d="M252.69755,164.03868l-27.60349,32.04801" data-paper-data="{&quot;origPos&quot;:null,&quot;origRot&quot;:0}" stroke="#000000" stroke-width="22.5" stroke-linecap="round"/><path d="M253.94315,192.68559l-29.59211,-27.70608" data-paper-data="{&quot;origPos&quot;:null,&quot;origRot&quot;:0}" stroke="#ffffff" stroke-width="6" stroke-linecap="round"/><path d="M251.11154,164.97052l-23.74121,28.34346" data-paper-data="{&quot;origPos&quot;:null,&quot;origRot&quot;:0}" stroke="#ffffff" stroke-width="6" stroke-linecap="round"/><path d="M185.83587,178.26735c0,-1.38071 1.11929,-2.5 2.5,-2.5c1.38071,0 2.5,1.11929 2.5,2.5c0,1.38071 -1.11929,2.5 -2.5,2.5c-1.38071,0 -2.5,-1.11929 -2.5,-2.5z" data-paper-data="{&quot;origPos&quot;:null}" stroke="none" stroke-width="0.5" stroke-linecap="butt"/><path d="M271.4691,177.82874c0,-1.38071 1.11929,-2.5 2.5,-2.5c1.38071,0 2.5,1.11929 2.5,2.5c0,1.38071 -1.11929,2.5 -2.5,2.5c-1.38071,0 -2.5,-1.11929 -2.5,-2.5z" data-paper-data="{&quot;origPos&quot;:null}" stroke="none" stroke-width="0.5" stroke-linecap="butt"/></g></g></svg>