<svg version="1.1" xmlns="http://www.w3.org/2000/svg" xmlns:xlink="http://www.w3.org/1999/xlink" width="80.1605" height="64.10617" viewBox="0,0,80.1605,64.10617"><g transform="translate(-199.91975,-138.22827)"><g data-paper-data="{&quot;isPaintingLayer&quot;:true}" fill-rule="nonzero" stroke-linecap="butt" stroke-linejoin="miter" stroke-miterlimit="10" stroke-dasharray="" stroke-dashoffset="0" style="mix-blend-mode: normal"><g><path d="M202.09535,200.81386v-16.5469h75.67449v16.5469z" fill="#ff6666" stroke="none" stroke-width="0"/><path d="M222.54743,184.50915c-6.59076,2.3397 4.04354,14.06742 -16.77402,17.43141c-0.9281,0.53428 -1.73072,-0.58046 -1.55862,-0.7299c9.59829,-8.71979 2.23019,-13.3406 15.2745,-17.49709c0,0 1.64159,-0.59126 1.81251,-0.59874c0.51276,-0.02242 1.95676,0.28734 1.24563,1.39432z" fill="#ffffff" stroke="#ffffff" stroke-width="0.5"/></g><g data-paper-data="{&quot;origPos&quot;:null}" fill="#66c5ff" stroke="none" stroke-width="0"><path d="M211.03251,163.91208c0,-14.18477 11.49903,-25.68381 25.68381,-25.68381c14.18477,0 25.68381,11.49903 25.68381,25.68381c0,14.18477 -11.49903,25.68381 -25.68381,25.68381c-14.18477,0 -25.68381,-11.49903 -25.68381,-25.68381z" data-paper-data="{&quot;origPos&quot;:null}"/><path d="M239.65721,168.81357c0,-10.82807 8.77788,-19.60596 19.60596,-19.60596c10.82807,0 19.60596,8.77789 19.60596,19.60596c0,10.82807 -8.77789,19.60596 -19.60596,19.60596c-10.82807,0 -19.60596,-8.77788 -19.60596,-19.60596z" data-paper-data="{&quot;origPos&quot;:null}"/><path d="M199.91975,172.60541c0,-7.9045 6.40786,-14.31235 14.31235,-14.31235c7.9045,0 14.31235,6.40786 14.31235,14.31235c0,7.9045 -6.40786,14.31235 -14.31235,14.31235c-7.9045,0 -14.31235,-6.40785 -14.31235,-14.31235z" data-paper-data="{&quot;origPos&quot;:null}"/></g><path d="M256.16936,148.79099c0.87408,1.42038 -1.29325,1.92259 -1.29325,1.92259l-1.00067,0.33356c-3.04881,1.01627 -4.75319,2.33374 -7.01988,4.60044c0,0 -0.19272,0.19272 -0.50024,0.34443c-0.45321,0.22359 -1.15578,0.35814 -1.85836,-0.34443c-0.51832,-0.51832 -0.58102,-1.03663 -0.48848,-1.45482l1.82271,-2.23799l0.03092,0.03092c2.05994,-1.86036 2.73478,-2.53936 5.62431,-3.50254c0,0 3.80886,-1.11253 4.68294,0.30785z" data-paper-data="{&quot;origPos&quot;:null}" fill="#3bb4ff" stroke="none" stroke-width="0.5"/><path d="M214.69308,181.81068c0.0318,-1.56786 2.71034,-0.92341 4.4384,-1.37288c2.30878,-0.60052 3.92402,-1.72613 4.67339,-2.21356c1.03853,-0.67552 1.53718,-1.31071 2.41321,-2.18675c0,0 1.11259,-1.51285 2.29189,-0.33356c1.1793,1.1793 -0.33356,2.69215 -0.33356,2.69215c-4.20858,4.07516 -7.97162,4.53282 -7.99013,4.53899c0,0 -5.6358,1.10624 -5.4932,-1.1244z" data-paper-data="{&quot;origPos&quot;:null}" fill="#3bb4ff" stroke="none" stroke-width="0.5"/><path d="M222.96308,142.51415c1.34343,0.98827 0.35516,2.3317 0.35516,2.3317l-2.01246,1.00955c-3.26932,1.78327 -6.20223,5.82578 -6.20223,9.60992c0,0 0,1.66778 -1.66778,1.66778c-1.66778,0 -1.66778,-1.66778 -1.66778,-1.66778c0,-4.99225 3.61614,-10.17942 7.94055,-12.53819l0.92283,-0.05783c0,0 0.98827,-1.34343 2.3317,-0.35516z" data-paper-data="{&quot;origPos&quot;:null}" fill="#3bb4ff" stroke="none" stroke-width="0.5"/><path d="M269.10362,185.36378c-1.47948,-0.76981 -0.70967,-2.2493 -0.70967,-2.2493l0.8379,-0.79935c0.72408,-0.57926 1.43162,-1.14088 2.21451,-1.63908c0.85103,-0.2918 1.49237,-1.55102 2.06139,-2.23655c2.62188,-3.15876 3.23694,-7.02981 3.23694,-10.96616c0,0 0,-1.66778 1.66778,-1.66778c1.66778,0 1.66778,1.66778 1.66778,1.66778c0,5.85486 -1.83047,12.38604 -6.84311,16.01679c-0.68932,0.43866 -1.28415,0.91968 -1.92159,1.42963l0.03736,-0.26566c0,0 -0.76981,1.47949 -2.2493,0.70967z" data-paper-data="{&quot;origPos&quot;:null}" fill="#3bb4ff" stroke="none" stroke-width="0.5"/><path d="M250.32915,185.10349c0.64872,1.53644 -0.88772,2.18516 -0.88772,2.18516l-0.91748,0.86165c-1.79122,0.97703 -3.47181,1.47611 -5.48165,1.78532c0,0 -1.64838,0.2536 -1.90198,-1.39479c-0.2536,-1.64839 1.39479,-1.90198 1.39479,-1.90198c1.64367,-0.25287 2.93744,-0.62364 4.39161,-1.41682l1.21728,-1.00626c0,0 1.53644,-0.64872 2.18516,0.88772z" data-paper-data="{&quot;origPos&quot;:null}" fill="#3bb4ff" stroke="none" stroke-width="0.5"/></g></g></svg>