<svg version="1.1" xmlns="http://www.w3.org/2000/svg" xmlns:xlink="http://www.w3.org/1999/xlink" width="90.63323" height="123.4148"><g transform="translate(-185.83587,-114.92201)"><g data-paper-data="{&quot;isPaintingLayer&quot;:true}" fill="none" fill-rule="nonzero" stroke="none" stroke-width="none" stroke-linecap="none" stroke-linejoin="miter" stroke-miterlimit="10" stroke-dasharray="" stroke-dashoffset="0" font-family="none" font-weight="none" font-size="none" text-anchor="none" style="mix-blend-mode: normal"><path d="M185.83587,178.26735c0,-1.38071 1.11929,-2.5 2.5,-2.5c1.38071,0 2.5,1.11929 2.5,2.5c0,1.38071 -1.11929,2.5 -2.5,2.5c-1.38071,0 -2.5,-1.11929 -2.5,-2.5z" data-paper-data="{&quot;origPos&quot;:null}" fill="none" stroke="none" stroke-width="0.5" stroke-linecap="butt"/><path d="M271.4691,177.67806c0,-1.38071 1.11929,-2.5 2.5,-2.5c1.38071,0 2.5,1.11929 2.5,2.5c0,1.38071 -1.11929,2.5 -2.5,2.5c-1.38071,0 -2.5,-1.11929 -2.5,-2.5z" data-paper-data="{&quot;origPos&quot;:null}" fill="none" stroke="none" stroke-width="0.5" stroke-linecap="butt"/><path d="" data-paper-data="{&quot;origPos&quot;:null,&quot;origRot&quot;:0}" fill="none" stroke="#00cccc" stroke-width="24" stroke-linecap="round"/><path d="" data-paper-data="{&quot;origPos&quot;:null,&quot;origRot&quot;:0}" fill="none" stroke="#ffffff" stroke-width="6" stroke-linecap="round"/><path d="" data-paper-data="{&quot;origPos&quot;:null,&quot;origRot&quot;:0}" fill="none" stroke="#00cccc" stroke-width="24" stroke-linecap="round"/><path d="" data-paper-data="{&quot;origPos&quot;:null,&quot;origRot&quot;:0}" fill="none" stroke="#ffffff" stroke-width="6" stroke-linecap="round"/><path d="M220.04586,154.20569c9.79987,-4.77702 23.3491,-4.38196 28.90924,-2.8941c4.93994,1.32189 10.01868,4.38813 13.62115,7.94526c2.69387,2.69387 3.44786,5.90939 4.6025,9.37999c2.1255,6.3888 1.96688,13.24994 2.0471,20.00214c0,8.25595 -0.34805,16.45998 -0.34805,24.67433c0,1.35174 -0.47617,2.62692 -0.16437,3.94491c0.45663,3.65306 0.51421,6.59772 -3.0738,6.24258c-1.84776,-0.18289 -8.79221,-0.03442 -12.39904,0.10234c-3.86847,0.14669 -7.23096,-0.95849 -13.16154,-0.10234c-7.90883,0.9886 -13.95397,1.34748 -20.83024,-3.0746c-3.20504,-2.06114 -6.29641,-3.68052 -8.0788,-7.29734c-1.58242,-3.6923 -3.56459,-7.33096 -4.0707,-11.39133c-0.80202,-6.43439 0.40006,-12.48919 3.54217,-18.11943c0.67564,-1.18238 1.48986,-2.59735 2.55125,-3.48317c0.90272,-0.75339 2.32919,-0.9068 2.9814,-1.88512c0.22306,-0.33459 -1.15072,-0.53599 -1.22189,-0.62513c-0.5752,-0.72048 -1.25964,-2.35352 -1.68083,-3.19625c-1.5795,-3.16029 -3.57686,-10.01997 -3.67741,-10.13886c-0.01352,-0.01586 -0.02685,-0.03189 -0.03998,-0.04809c-0.9281,-1.13556 0.36451,-4.00616 0.36451,-4.00616l4.64678,-3.01237c0.0242,0.00562 3.17931,-1.89551 5.48053,-3.01726z" data-paper-data="{&quot;origPos&quot;:null}" fill="#000000" stroke="none" stroke-width="0.5" stroke-linecap="butt"/><text transform="translate(213.6672,211.65252) scale(2.22369,2.22369)" font-size="40" xml:space="preserve" data-paper-data="{&quot;origPos&quot;:null}" fill="#ffffff" fill-rule="nonzero" stroke="none" stroke-width="1" stroke-linecap="butt" stroke-linejoin="miter" stroke-miterlimit="10" stroke-dasharray="" stroke-dashoffset="0" font-family="Sans Serif" font-weight="normal" text-anchor="start" style="mix-blend-mode: normal"><tspan x="0" dy="0">a</tspan></text></g></g></svg>