<svg version="1.1" xmlns="http://www.w3.org/2000/svg" xmlns:xlink="http://www.w3.org/1999/xlink" width="65.97332" height="123.4148" viewBox="0,0,65.97332,123.4148"><g transform="translate(-206.17734,-114.18475)"><g data-paper-data="{&quot;isPaintingLayer&quot;:true}" fill="none" fill-rule="nonzero" stroke="none" stroke-width="none" stroke-linecap="butt" stroke-linejoin="miter" stroke-miterlimit="10" stroke-dasharray="" stroke-dashoffset="0" font-family="none" font-weight="none" font-size="none" text-anchor="none" style="mix-blend-mode: normal"><path d="M213.55316,176.00471c-5.50794,-7.11501 -5.51192,-18.9096 -1.35705,-26.63041c5.52485,-9.94473 14.72592,-15.46403 26.14156,-15.46403c7.67973,0 16.70126,1.60648 22.95563,6.45668c1.87994,1.45788 3.35943,3.7039 4.8767,5.52462c3.6398,4.36776 3.98899,9.87339 4.32769,15.2897c0.35987,5.75492 -0.07605,11.18875 -4.48482,15.44682c-0.06965,0.05804 -0.16095,0.13851 -0.26906,0.23537c1.27892,1.38029 2.36694,3.30102 3.12074,4.91505c2.51046,5.37534 4.08763,12.95216 2.86222,18.79527c-2.59639,10.38555 -10.51678,19.39385 -21.04914,22.02694c-10.95945,2.73986 -20.35114,1.25316 -30.40659,-3.77457c-6.16051,-3.08026 -9.87324,-6.85118 -12.30617,-13.29484c-1.86694,-4.94462 -2.11317,-8.4269 -1.4613,-14.03817c0.66273,-5.70478 2.86026,-11.39228 6.92498,-15.45701z" data-paper-data="{&quot;origPos&quot;:null}" fill="#000000" stroke-width="0.5"/><text transform="translate(214.15534,210.91527) scale(2.22369,2.22369)" font-size="40" xml:space="preserve" data-paper-data="{&quot;origPos&quot;:null}" fill="#ffffff" fill-rule="nonzero" stroke="none" stroke-width="1" stroke-linecap="butt" stroke-linejoin="miter" stroke-miterlimit="10" stroke-dasharray="" stroke-dashoffset="0" font-family="Sans Serif" font-weight="normal" text-anchor="start" style="mix-blend-mode: normal"><tspan x="0" dy="0">8</tspan></text></g></g></svg>