<svg version="1.1" xmlns="http://www.w3.org/2000/svg" xmlns:xlink="http://www.w3.org/1999/xlink" width="90.63316" height="123.4148"><g transform="translate(-185.836,-115.422)"><g data-paper-data="{&quot;isPaintingLayer&quot;:true}" fill="none" fill-rule="nonzero" stroke="none" stroke-width="none" stroke-linecap="none" stroke-linejoin="miter" stroke-miterlimit="10" stroke-dasharray="" stroke-dashoffset="0" font-family="none" font-weight="none" font-size="none" text-anchor="none" style="mix-blend-mode: normal"><path d="M185.83601,178.26733c0,-1.38071 1.11929,-2.5 2.5,-2.5c1.38071,0 2.5,1.11929 2.5,2.5c0,1.38071 -1.11929,2.5 -2.5,2.5c-1.38071,0 -2.5,-1.11929 -2.5,-2.5z" data-paper-data="{&quot;origPos&quot;:null}" fill="none" stroke="none" stroke-width="0.5" stroke-linecap="butt"/><path d="M271.46916,177.82872c0,-1.38071 1.11929,-2.5 2.5,-2.5c1.38071,0 2.5,1.11929 2.5,2.5c0,1.38071 -1.11929,2.5 -2.5,2.5c-1.38071,0 -2.5,-1.11929 -2.5,-2.5z" data-paper-data="{&quot;origPos&quot;:null}" fill="none" stroke="none" stroke-width="0.5" stroke-linecap="butt"/><path d="" data-paper-data="{&quot;origPos&quot;:null,&quot;origRot&quot;:0}" fill="none" stroke="#00cccc" stroke-width="24" stroke-linecap="round"/><path d="" data-paper-data="{&quot;origPos&quot;:null,&quot;origRot&quot;:0}" fill="none" stroke="#ffffff" stroke-width="6" stroke-linecap="round"/><path d="" data-paper-data="{&quot;origPos&quot;:null,&quot;origRot&quot;:0}" fill="none" stroke="#00cccc" stroke-width="24" stroke-linecap="round"/><path d="" data-paper-data="{&quot;origPos&quot;:null,&quot;origRot&quot;:0}" fill="none" stroke="#ffffff" stroke-width="6" stroke-linecap="round"/><path d="M236.71576,221.46852c-0.69222,0.60481 0.10131,0.08611 0.13433,1.60184c0.00661,0.30329 -1.21515,1.06456 -1.21515,1.06456c-7.23609,0.57143 -22.09201,-0.43845 -22.56924,-0.60808c-5.33393,0.29996 -2.83849,-1.02943 -4.07362,-2.03478c-0.32315,-0.26303 0,-4.58334 0,-6.25c0,-5.87645 -0.5,-11.67308 -0.5,-17.5c0,-5.38465 0.5,-23.75466 0.5,-27.5c0,-10.31472 -1.29598,-33.01519 0,-35.60714c-0.63242,-2.59231 6.84269,-1.65863 7,-1.64286c3.01532,0.30226 9.98701,-0.60272 10.49029,-0.45145c1.89614,0.56994 3.80212,0.45145 5.75971,0.45145c3.08695,0.08612 8.32036,-1.12659 8.27381,1.5c0.36059,0.95464 0.47619,2.66666 0.47619,3.5c0,2.5 0,5 0,7.5c0,2.07336 0.39368,3.60842 0.28571,5.67857c-0.008,0.15337 0.20319,1.0697 0.45458,1.11998c2.93729,0.77888 8.04567,-1.07079 12.04533,1.09455c2.55805,1.41906 8.09078,3.80491 13.625,11.33914c6.46183,7.37482 8.69861,19.46913 6.79083,29.00805c-1.96022,9.80107 -5.39459,19.77957 -13.70145,26.00971c-5.41697,3.69235 -9.44781,4.25 -15.78571,4.25c-2.50476,0 -6.17246,-1.44022 -7.99061,-2.52354zM242.6657,192.03718c0.33774,-1.51591 0.59784,-3.84102 0.22222,-5.34349c-0.31895,-1.07169 -0.92978,-4.21439 -1.61352,-3.05309c-0.57143,0.97055 -0.92885,2.19178 -0.98266,3.39657c-0.06249,1.52541 -0.07755,2.2015 -0.11111,3.65651c0.23519,0.94814 0.26526,2.4166 1.29299,3.64392c0.16051,0.19168 0.96832,-1.4054 1.19208,-2.30043z" data-paper-data="{&quot;origPos&quot;:null}" fill="#000000" stroke="none" stroke-width="0.5" stroke-linecap="butt"/><text transform="translate(212.50056,212.15252) scale(2.22369,2.22369)" font-size="40" xml:space="preserve" data-paper-data="{&quot;origPos&quot;:null}" fill="#ffffff" fill-rule="nonzero" stroke="none" stroke-width="1" stroke-linecap="butt" stroke-linejoin="miter" stroke-miterlimit="10" stroke-dasharray="" stroke-dashoffset="0" font-family="Sans Serif" font-weight="normal" text-anchor="start" style="mix-blend-mode: normal"><tspan x="0" dy="0">b</tspan></text></g></g></svg>