<svg version="1.1" xmlns="http://www.w3.org/2000/svg" xmlns:xlink="http://www.w3.org/1999/xlink" width="86" height="37.47307"><defs><linearGradient x1="198.04793" y1="176.93079" x2="284.04793" y2="176.93079" gradientUnits="userSpaceOnUse" id="color-1"><stop offset="0" stop-color="#3efae5"/><stop offset="1" stop-color="#29a0f2"/></linearGradient></defs><g transform="translate(-198.048,-158.19447)"><g data-paper-data="{&quot;isPaintingLayer&quot;:true}" fill="none" fill-rule="nonzero" stroke="none" stroke-width="1" stroke-linecap="butt" stroke-linejoin="miter" stroke-miterlimit="10" stroke-dasharray="" stroke-dashoffset="0" font-family="none" font-weight="none" font-size="none" text-anchor="none" style="mix-blend-mode: normal"><path d="M284.048,176.931c0,10.33075 -8.4065,18.73653 -18.73797,18.73653h-48.52622c-10.33075,0 -18.73582,-8.40507 -18.73582,-18.73653c0,-10.33147 8.40435,-18.73653 18.73582,-18.73653h48.52622c10.33147,0 18.73725,8.40435 18.73797,18.73653z" data-paper-data="{&quot;origPos&quot;:null}" fill="url(#color-1)"/><path d="M280.82013,176.92957c0,8.56632 -6.94378,15.50938 -15.5101,15.50938h-48.52622c-8.5656,0 -15.50867,-6.94307 -15.50867,-15.50938v0c0,-8.56488 6.94307,-15.50867 15.50867,-15.50867h48.52622c8.5656,0 15.5101,6.94378 15.5101,15.50867z" data-paper-data="{&quot;origPos&quot;:null}" fill="#57bcdd"/><text transform="translate(211,184.76875) scale(0.5,0.5)" font-size="40" xml:space="preserve" data-paper-data="{&quot;origPos&quot;:null}" fill="#fafafa" fill-rule="nonzero" stroke="none" stroke-width="1" stroke-linecap="butt" stroke-linejoin="miter" stroke-miterlimit="10" stroke-dasharray="" stroke-dashoffset="0" font-family="&quot;ヒラギノ角ゴ Pro W3&quot;, &quot;Hiragino Kaku Gothic Pro&quot;, Osaka, &quot;メイリオ&quot;, Meiryo, &quot;ＭＳ Ｐゴシック&quot;, &quot;MS PGothic&quot;" font-weight="normal" text-anchor="start" style="mix-blend-mode: normal"><tspan x="0" dy="0">ほしい</tspan></text></g></g></svg>