<svg version="1.1" xmlns="http://www.w3.org/2000/svg" xmlns:xlink="http://www.w3.org/1999/xlink" width="90.6332" height="123.4148"><g transform="translate(-185.83596,-113.75535)"><g data-paper-data="{&quot;isPaintingLayer&quot;:true}" fill="none" fill-rule="nonzero" stroke="none" stroke-width="none" stroke-linecap="none" stroke-linejoin="miter" stroke-miterlimit="10" stroke-dasharray="" stroke-dashoffset="0" font-family="none" font-weight="none" font-size="none" text-anchor="none" style="mix-blend-mode: normal"><path d="M185.83597,178.26734c0,-1.38071 1.11929,-2.5 2.5,-2.5c1.38071,0 2.5,1.11929 2.5,2.5c0,1.38071 -1.11929,2.5 -2.5,2.5c-1.38071,0 -2.5,-1.11929 -2.5,-2.5z" data-paper-data="{&quot;origPos&quot;:null}" fill="none" stroke="none" stroke-width="0.5" stroke-linecap="butt"/><path d="M271.46916,177.82874c0,-1.38071 1.11929,-2.5 2.5,-2.5c1.38071,0 2.5,1.11929 2.5,2.5c0,1.38071 -1.11929,2.5 -2.5,2.5c-1.38071,0 -2.5,-1.11929 -2.5,-2.5z" data-paper-data="{&quot;origPos&quot;:null}" fill="none" stroke="none" stroke-width="0.5" stroke-linecap="butt"/><path d="" data-paper-data="{&quot;origPos&quot;:null,&quot;origRot&quot;:0}" fill="none" stroke="#00cccc" stroke-width="24" stroke-linecap="round"/><path d="" data-paper-data="{&quot;origPos&quot;:null,&quot;origRot&quot;:0}" fill="none" stroke="#ffffff" stroke-width="6" stroke-linecap="round"/><path d="" data-paper-data="{&quot;origPos&quot;:null,&quot;origRot&quot;:0}" fill="none" stroke="#00cccc" stroke-width="24" stroke-linecap="round"/><path d="" data-paper-data="{&quot;origPos&quot;:null,&quot;origRot&quot;:0}" fill="none" stroke="#ffffff" stroke-width="6" stroke-linecap="round"/><path d="M265.3307,170.94344c-1.92985,5.51418 -2.21257,11.30186 -4.38771,13.74385c-0.44208,0.49631 -7.97725,-2.437 -8.7,-2.85c-2.38359,-0.85595 -7.91543,-2.21147 -9.72586,-1.31672c-4.47133,2.20982 -5.02903,7.16481 -2.16357,10.98478c0.71393,0.13746 3.67464,1.6623 4.45609,1.59073c3.11614,-0.2854 7.56658,-1.46644 9.22222,-2.29392c3.23624,-1.61747 6.00376,-2.62746 6.35146,-2.75214c4.88071,-1.75 4.96929,1.20026 4.91176,1.41073c0,0 1.95491,7.50082 1.95491,10.63927c-0.04715,4.01379 1.27008,12.7655 0.06713,15.35389c-0.42713,0.91906 -3.52697,1.93968 -4.36011,2.51672c-2.65518,1.83899 -5.83911,3.47269 -8.96734,4.25475c-9.28381,2.21428 -22.87308,2.05108 -30.54013,-4.33814c-1.87144,-1.57934 -9.04111,-8.78999 -10.23681,-11.18021c-2.27413,-4.54598 -4.62986,-10.2885 -4.81009,-15.6171c-0.17569,-5.1945 0.02252,-9.95257 1.23987,-14.83439c0.6334,-2.54006 5.13138,-11.89598 6.6536,-13.72265c7.42861,-8.50202 8.67213,-9.16621 18.02055,-11.16621c4.69089,-1.16134 13.89533,-1.83516 20.71813,0.40214c4.62871,1.51782 14.76582,6.10716 14.90073,7.3606c0,0 -3.41922,8.42637 -4.60483,11.81402z" data-paper-data="{&quot;origPos&quot;:null}" fill="#000000" stroke="#000000" stroke-width="0.5" stroke-linecap="butt"/><text transform="translate(215.8339,210.48587) scale(2.22369,2.22369)" font-size="40" xml:space="preserve" data-paper-data="{&quot;origPos&quot;:null}" fill="#ffffff" fill-rule="nonzero" stroke="none" stroke-width="1" stroke-linecap="butt" stroke-linejoin="miter" stroke-miterlimit="10" stroke-dasharray="" stroke-dashoffset="0" font-family="Sans Serif" font-weight="normal" text-anchor="start" style="mix-blend-mode: normal"><tspan x="0" dy="0">c</tspan></text></g></g></svg>