<svg version="1.1" xmlns="http://www.w3.org/2000/svg" xmlns:xlink="http://www.w3.org/1999/xlink" width="68.44808" height="123.4148" viewBox="0,0,68.44808,123.4148"><g transform="translate(-203.07879,-114.94135)"><g data-paper-data="{&quot;isPaintingLayer&quot;:true}" fill="none" fill-rule="nonzero" stroke="none" stroke-width="none" stroke-linecap="butt" stroke-linejoin="miter" stroke-miterlimit="10" stroke-dasharray="" stroke-dashoffset="0" font-family="none" font-weight="none" font-size="none" text-anchor="none" style="mix-blend-mode: normal"><path d="M204.02406,156.27624c-1.92055,-1.60046 -0.32009,-3.52101 -0.32009,-3.52101c5.51051,-6.61262 14.03846,-11.82775 21.65492,-15.30265c7.04486,-3.35576 22.02161,-2.2379 25.54717,-0.82636c4.3998,0.96081 7.93966,4.59524 8.96379,5.38944c8.06024,6.25064 10.50198,17.53682 8.15194,26.96154c-1.53446,6.13786 -5.29942,12.44769 -8.77965,17.66724c-1.02478,1.53693 -2.5605,2.92758 -3.45879,4.51261c-0.05922,0.10449 1.05772,0.1407 1.66472,0.13668c2.39846,-0.01587 9.98561,-0.06262 10.11877,-0.0148c1.31332,0.4717 2.32018,1.6017 2.8894,2.87579c1.47915,3.31081 1.11926,8.12355 0.71727,11.68273c-0.40044,3.20352 -0.42737,6.93367 0,10.13566c0.13957,1.04575 0.53817,3.65807 -0.16297,4.53138c-3.82486,4.76411 -12.08464,3.2359 -17.42814,2.11527c-2.76956,-0.69239 -5.71946,-0.11129 -8.53567,0.05534c-3.70043,0.21895 -7.41653,0.1135 -11.11577,0.32995c-2.82186,0.16511 -6.46642,-0.69023 -9.12183,0.26658c-4.67754,1.16938 -8.9526,0.58336 -13.59818,0c-1.58328,-0.19882 -4.24605,0.31463 -5.48642,-1.06234c-0.79633,-0.88402 -1.33583,-1.97682 -1.87348,-3.03822c-1.64664,-3.25069 0.22029,-8.33244 -0.22232,-11.90093c-0.28761,-2.58847 -0.07243,-5.96921 1.71535,-8.07576c1.36228,-1.60519 3.32713,-2.64454 4.87275,-4.06186c2.74441,-2.51659 11.33812,-10.12268 12.55431,-11.73948c2.01578,-2.41894 4.49275,-4.30325 6.5085,-6.68599c1.37353,-1.62359 3.08861,-3.32364 4.31501,-5.05585c1.85688,-2.04362 2.79939,-3.77227 2.15266,-4.80675c-0.10715,-0.1714 -1.5173,-0.05044 -1.62627,0.1772c-2.79123,1.39561 -4.21294,2.44575 -6.83195,4.90591c-0.84232,0.91168 -3.12105,3.79662 -4.41925,3.90473c-6.44239,0.53653 -10.12906,-7.08064 -12.89723,-11.92494c-0.96559,-1.68979 -5.51512,-7.2699 -5.94856,-7.63111z" data-paper-data="{&quot;origPos&quot;:null}" fill="#000000" stroke-width="0.5"/><text transform="translate(214.14868,211.67186) scale(2.22369,2.22369)" font-size="40" xml:space="preserve" data-paper-data="{&quot;origPos&quot;:null}" fill="#ffffff" fill-rule="nonzero" stroke="none" stroke-width="1" stroke-linecap="butt" stroke-linejoin="miter" stroke-miterlimit="10" stroke-dasharray="" stroke-dashoffset="0" font-family="Sans Serif" font-weight="normal" text-anchor="start" style="mix-blend-mode: normal"><tspan x="0" dy="0">2</tspan></text></g></g></svg>