<svg version="1.1" xmlns="http://www.w3.org/2000/svg" xmlns:xlink="http://www.w3.org/1999/xlink" width="65.73547" height="123.4148" viewBox="0,0,65.73547,123.4148"><g transform="translate(-207.63545,-115.32991)"><g data-paper-data="{&quot;isPaintingLayer&quot;:true}" fill="none" fill-rule="nonzero" stroke="none" stroke-width="none" stroke-linecap="butt" stroke-linejoin="miter" stroke-miterlimit="10" stroke-dasharray="" stroke-dashoffset="0" font-family="none" font-weight="none" font-size="none" text-anchor="none" style="mix-blend-mode: normal"><path d="M262.71414,168.05392c1.33657,1.6284 2.60648,3.27404 4.3624,4.73731c8.53786,7.46582 6.6197,20.29243 4.42529,30.16729c-0.98525,3.57975 -3.09816,5.71335 -5.29515,8.57022c-4.47136,5.81439 -10.40572,10.66855 -18.02096,11.62046c-3.34392,0.35722 -6.61379,1.62378 -10.04259,1.41136c-2.43875,-0.15108 -4.81236,-1.57912 -7.21608,-1.88096c-4.44304,-0.55793 -8.29449,-1.26333 -12.66591,-2.35619c-3.83418,-0.99911 -8.26896,-2.72849 -10.36795,-6.33656c-0.70291,-1.20828 0.24599,-4.1907 0.32593,-5.54089c0.28426,-4.80124 0.32594,-6.8693 0.32594,-11.73363c0,-9.85149 0,2.99563 0,-6.84462c0.02676,-2.23689 2.17771,-1.85802 2.38897,-4.08508c0.57297,-6.03992 1.79546,-23.43094 2.17411,-29.48615c0.30883,-4.9388 0.57528,-18.70165 0.89689,-18.73712c0,0 7.78866,-1.01068 12.55065,-1.01068c3.21819,0 10.52044,0.4215 14.78544,-0.17037c6.00336,0.75042 11.93972,0.18338 17.94223,0.14366c1.4231,-0.00941 2.81474,0.34524 4.2213,0.34524c0.52227,0 2.54925,-0.37852 2.9873,-0.07594c3.05057,2.10712 2.20438,2.89109 2.60562,5.83182c0.81787,6.54296 2.24194,19.06539 2.24194,19.06539c0.29507,0.53015 -1.69779,3.70256 -2.45181,3.62088c0.18243,0.51811 -5.15081,2.71735 -6.17355,2.74456zM230.28212,193.23187c0,0 2.1645,0.7634 2.35819,0.82797c1.40667,0.40026 2.44379,0.06285 3.9961,-0.05475c3.30041,-0.49449 0.7534,-1.78559 -0.98063,-2.08664c-0.82569,-0.37789 -3.67194,0.37418 -3.67194,0.37418z" data-paper-data="{&quot;origPos&quot;:null}" fill="#000000" stroke-width="0.5"/><text transform="translate(215.71136,212.06043) scale(2.22369,2.22369)" font-size="40" xml:space="preserve" data-paper-data="{&quot;origPos&quot;:null}" fill="#ffffff" fill-rule="nonzero" stroke="none" stroke-width="1" stroke-linecap="butt" stroke-linejoin="miter" stroke-miterlimit="10" stroke-dasharray="" stroke-dashoffset="0" font-family="Sans Serif" font-weight="normal" text-anchor="start" style="mix-blend-mode: normal"><tspan x="0" dy="0">5</tspan></text><path d="" data-paper-data="{&quot;origPos&quot;:null}" fill="none" stroke-width="0.5"/></g></g></svg>