<svg version="1.1" xmlns="http://www.w3.org/2000/svg" xmlns:xlink="http://www.w3.org/1999/xlink" width="90.63315" height="123.4148"><g transform="translate(-185.83601,-114.15232)"><g data-paper-data="{&quot;isPaintingLayer&quot;:true}" fill="none" fill-rule="nonzero" stroke="none" stroke-width="none" stroke-linecap="none" stroke-linejoin="miter" stroke-miterlimit="10" stroke-dasharray="" stroke-dashoffset="0" font-family="none" font-weight="none" font-size="none" text-anchor="none" style="mix-blend-mode: normal"><path d="M185.83601,178.26733c0,-1.38071 1.11929,-2.5 2.5,-2.5c1.38071,0 2.5,1.11929 2.5,2.5c0,1.38071 -1.11929,2.5 -2.5,2.5c-1.38071,0 -2.5,-1.11929 -2.5,-2.5z" data-paper-data="{&quot;origPos&quot;:null}" fill="none" stroke="none" stroke-width="0.5" stroke-linecap="butt"/><path d="M271.46916,177.82872c0,-1.38071 1.11929,-2.5 2.5,-2.5c1.38071,0 2.5,1.11929 2.5,2.5c0,1.38071 -1.11929,2.5 -2.5,2.5c-1.38071,0 -2.5,-1.11929 -2.5,-2.5z" data-paper-data="{&quot;origPos&quot;:null}" fill="none" stroke="none" stroke-width="0.5" stroke-linecap="butt"/><path d="" data-paper-data="{&quot;origPos&quot;:null,&quot;origRot&quot;:0}" fill="none" stroke="#00cccc" stroke-width="24" stroke-linecap="round"/><path d="" data-paper-data="{&quot;origPos&quot;:null,&quot;origRot&quot;:0}" fill="none" stroke="#ffffff" stroke-width="6" stroke-linecap="round"/><path d="" data-paper-data="{&quot;origPos&quot;:null,&quot;origRot&quot;:0}" fill="none" stroke="#00cccc" stroke-width="24" stroke-linecap="round"/><path d="" data-paper-data="{&quot;origPos&quot;:null,&quot;origRot&quot;:0}" fill="none" stroke="#ffffff" stroke-width="6" stroke-linecap="round"/><path d="M269.50001,200.78515c0,1.96051 0.33333,3.921 0.33333,5.88151c0,3.08864 0.22712,4.69565 -1.18187,7.6312c-0.34116,0.7108 -7.58038,4.82666 -9.72047,5.62908c-2.86609,1.07464 -6.25653,2.00517 -9.26433,2.57306c-3.22033,0.60801 -9.3566,0.9971 -12.60634,0.59202c-7.12394,-0.88799 -14.52079,-3.27279 -19.14755,-8.82489c-3.87384,-4.64862 -7.73454,-9.65698 -10.00481,-15.32746c-1.39007,-3.47201 -1.18667,-15.71514 -1,-17.21268c0.1909,-1.53154 2.67294,-10.68158 3.58808,-12.96734c1.67992,-4.19598 5.23775,-6.69566 8.40285,-9.86076c4.69344,-4.63506 10.15076,-7.31884 16.76776,-7.73224c3.35572,-0.20964 9.04661,-0.22196 12.31009,0.18598c6.59384,1.14765 12.90979,4.91723 17.61047,10.71357c2.52463,2.68092 4.27829,7.08808 5.17147,10.66079c1.90919,5.58389 2.59076,18.36587 1.722,23.96292c0,0 -1.706,2.68531 -2.98069,4.09524z" data-paper-data="{&quot;origPos&quot;:null}" fill="#000000" stroke="none" stroke-width="0.5" stroke-linecap="butt"/><text transform="translate(213.96269,210.88283) scale(2.22369,2.22369)" font-size="40" xml:space="preserve" data-paper-data="{&quot;origPos&quot;:null}" fill="#ffffff" fill-rule="nonzero" stroke="none" stroke-width="1" stroke-linecap="butt" stroke-linejoin="miter" stroke-miterlimit="10" stroke-dasharray="" stroke-dashoffset="0" font-family="Sans Serif" font-weight="normal" text-anchor="start" style="mix-blend-mode: normal"><tspan x="0" dy="0">e</tspan></text></g></g></svg>