<svg version="1.1" xmlns="http://www.w3.org/2000/svg" xmlns:xlink="http://www.w3.org/1999/xlink" width="43.20016" height="71.778" viewBox="0,0,43.20016,71.778"><defs><linearGradient x1="240.44017" y1="212.04429" x2="240.44017" y2="140.26708" gradientUnits="userSpaceOnUse" id="color-1"><stop offset="0" stop-color="#003f67"/><stop offset="1" stop-color="#6581ab"/></linearGradient><linearGradient x1="240.61485" y1="197.42869" x2="240.61485" y2="146.77386" gradientUnits="userSpaceOnUse" id="color-2"><stop offset="0" stop-color="#205d9b"/><stop offset="1" stop-color="#d1d2d3"/></linearGradient></defs><g transform="translate(-218.82628,-140.267)"><g data-paper-data="{&quot;isPaintingLayer&quot;:true}" fill="none" fill-rule="nonzero" stroke="none" stroke-width="1" stroke-linecap="butt" stroke-linejoin="miter" stroke-miterlimit="10" stroke-dasharray="" stroke-dashoffset="0" font-family="none" font-weight="none" font-size="none" text-anchor="none" style="mix-blend-mode: normal"><path d="M255.21429,140.267c3.74819,0 6.78728,3.03988 6.78728,6.78728v58.20422c0,3.74819 0.52262,6.7865 -3.22478,6.7865h-36.85246c-3.74819,0 -3.04587,-3.0383 -3.04587,-6.7865v-58.20343c0,-3.74977 3.0383,-6.78729 6.7865,-6.78729h29.54934z" data-paper-data="{&quot;origRot&quot;:0,&quot;origPos&quot;:null}" fill="url(#color-1)"/><path d="M228.48866,146.7744h24.25201c1.85279,0 3.35989,1.40038 3.35989,3.12392v44.40706c0,1.72173 0.24726,3.12332 -1.60553,3.12332h-27.90758c-1.85279,0 -1.45933,-1.40159 -1.45933,-3.12332v-44.40706c0,-1.72354 1.50774,-3.12392 3.36053,-3.12392z" data-paper-data="{&quot;origPos&quot;:null,&quot;origRot&quot;:0}" fill="url(#color-2)"/></g></g></svg>