<svg version="1.1" xmlns="http://www.w3.org/2000/svg" xmlns:xlink="http://www.w3.org/1999/xlink" width="90.63323" height="39.68474"><g transform="translate(-185.83587,-158.60115)"><g data-paper-data="{&quot;isPaintingLayer&quot;:true}" fill="none" fill-rule="nonzero" stroke="none" stroke-width="none" stroke-linecap="none" stroke-linejoin="miter" stroke-miterlimit="10" stroke-dasharray="" stroke-dashoffset="0" font-family="none" font-weight="none" font-size="none" text-anchor="none" style="mix-blend-mode: normal"><path d="M185.83587,178.26732c0,-1.38071 1.11929,-2.5 2.5,-2.5c1.38071,0 2.5,1.11929 2.5,2.5c0,1.38071 -1.11929,2.5 -2.5,2.5c-1.38071,0 -2.5,-1.11929 -2.5,-2.5z" data-paper-data="{&quot;origPos&quot;:null}" stroke="none" stroke-width="0.5" stroke-linecap="butt"/><path d="M271.4691,177.82871c0,-1.38071 1.11929,-2.5 2.5,-2.5c1.38071,0 2.5,1.11929 2.5,2.5c0,1.38071 -1.11929,2.5 -2.5,2.5c-1.38071,0 -2.5,-1.11929 -2.5,-2.5z" data-paper-data="{&quot;origPos&quot;:null}" stroke="none" stroke-width="0.5" stroke-linecap="butt"/><path d="M227.59442,171.44576l26.74367,-0.84461" data-paper-data="{&quot;origPos&quot;:null,&quot;origRot&quot;:0}" stroke="#000000" stroke-width="24" stroke-linecap="round"/><path d="M254.33457,170.36242l-26.34034,0.55696" data-paper-data="{&quot;origPos&quot;:null,&quot;origRot&quot;:0}" stroke="#ffffff" stroke-width="6" stroke-linecap="round"/><path d="M227.63822,186.28589l26.75281,-0.47366" data-paper-data="{&quot;origPos&quot;:null,&quot;origRot&quot;:0}" stroke="#000000" stroke-width="24" stroke-linecap="round"/><path d="M254.39082,185.57348l-26.34553,0.19163" data-paper-data="{&quot;origPos&quot;:null,&quot;origRot&quot;:0}" stroke="#ffffff" stroke-width="6" stroke-linecap="round"/></g></g></svg>