<svg version="1.1" xmlns="http://www.w3.org/2000/svg" xmlns:xlink="http://www.w3.org/1999/xlink" width="69.01963" height="123.4148" viewBox="0,0,69.01963,123.4148"><g transform="translate(-205.33042,-114.72642)"><g data-paper-data="{&quot;isPaintingLayer&quot;:true}" fill="none" fill-rule="nonzero" stroke="none" stroke-width="none" stroke-linecap="butt" stroke-linejoin="miter" stroke-miterlimit="10" stroke-dasharray="" stroke-dashoffset="0" font-family="none" font-weight="none" font-size="none" text-anchor="none" style="mix-blend-mode: normal"><path d="M205.37968,151.93613c-0.28165,-1.26354 0.73641,-2.28161 0.73641,-2.28161c3.57958,-3.57958 7.87504,-5.28862 12.05743,-7.96479c3.91965,-2.50805 7.44951,-4.57015 12.21565,-5.29661c7.31005,-0.91376 16.13924,-1.95226 23.10964,0.81484c2.22617,0.88374 4.82786,2.40345 6.96004,3.56943c3.6918,2.1096 8.11012,8.157 10.03485,12.46027c2.11152,5.64326 1.25583,11.54391 -0.78601,16.98882c-0.78177,2.08472 -2.06161,4.48992 -2.61472,6.55529c-0.12126,0.45279 0.35458,0.67339 0.56478,0.74447c1.60602,0.54309 3.69412,3.89994 4.32423,5.24913c2.02157,4.32852 2.72559,9.13809 2.20086,13.78407c-0.85573,6.84582 -0.43743,10.19827 -4.73245,15.78335c-1.00312,1.30442 -4.51891,4.56224 -5.86682,5.54088c-2.39829,1.74128 -9.8022,5.84581 -23.75815,6.11449c-3.31536,0.06383 -12.68427,-1.76322 -15.95493,-2.13788c-9.02694,-2.55433 -15.49966,-5.48185 -16.12472,-6.74271c-2.15605,-4.34911 -2.29374,-10.22373 -2.3619,-14.80514c0,-3.30721 0.98695,-8.35102 0.97781,-9.94099c-0.02206,-3.83452 8.78554,-0.44373 12.14966,0.3689c0.28109,-2.34494 -0.86821,-8.2362 -0.47668,-10.58597c-0.13866,-3.54378 1.59676,-7.23578 1.16345,-10.22975c-0.13581,-0.34363 -2.02561,1.20403 -2.38183,1.30215c-2.26618,-0.60162 -4.51591,-5.94073 -5.88807,-8.29719c-0.75954,-1.3292 -3.68063,-6.36643 -4.31303,-7.62527c-0.52835,-1.05172 -1.51122,-2.26838 -1.2355,-3.36816z" data-paper-data="{&quot;origPos&quot;:null}" fill="#000000" stroke-width="0.5"/><text transform="translate(216.46252,211.45694) scale(2.22369,2.22369)" font-size="40" xml:space="preserve" data-paper-data="{&quot;origPos&quot;:null}" fill="#ffffff" fill-rule="nonzero" stroke="none" stroke-width="1" stroke-linecap="butt" stroke-linejoin="miter" stroke-miterlimit="10" stroke-dasharray="" stroke-dashoffset="0" font-family="Sans Serif" font-weight="normal" text-anchor="start" style="mix-blend-mode: normal"><tspan x="0" dy="0">3</tspan></text></g></g></svg>