<svg version="1.1" xmlns="http://www.w3.org/2000/svg" xmlns:xlink="http://www.w3.org/1999/xlink" width="62.11016" height="123.4148"><g transform="translate(-210.2307,-114.25533)"><g data-paper-data="{&quot;isPaintingLayer&quot;:true}" fill="none" fill-rule="nonzero" stroke="none" stroke-width="none" stroke-linecap="butt" stroke-linejoin="miter" stroke-miterlimit="10" stroke-dasharray="" stroke-dashoffset="0" font-family="none" font-weight="none" font-size="none" text-anchor="none" style="mix-blend-mode: normal"><path d="M257.37036,208.15674c-0.4532,9.67935 -7.45416,14.64731 -14.42102,15.37036c-0.80624,0.12408 -9.55354,0.05638 -13.17349,-3.45048c-5.12801,-4.05818 -6.85902,-12.78614 -6.81709,-13.26012c-0.23449,-3.50314 1.46545,-7.82857 1.8291,-8.37079c4.42683,-6.60053 9.16627,-8.4834 16.7012,-8.18631c7.87824,0.31062 13.82586,5.20195 14.66829,6.67726c0,0 2.0628,6.30901 1.21301,11.22008z" data-paper-data="{&quot;origPos&quot;:null}" fill="#000000" stroke-width="0.5"/><path d="M210.2307,145.97518c9.63086,-5.23089 20.26423,-11.06929 33.00104,-11.15959c16.23071,-0.08849 26.82911,10.62751 29.09812,22.96009c0.31937,17.19891 -6.34275,23.52092 -16.16132,31.28239c-0.6502,4.00482 -0.73057,7.85893 -0.71009,8.24417c0.02644,0.49713 -8.42448,2.43733 -13.49255,2.62537c-5.957,0.1077 -11.71745,-1.07921 -16.29265,-2.92966c-1.91224,-0.77341 -0.8312,-5.74808 -0.4584,-10.81042c0.83654,-6.90612 0.3511,-5.21502 4.2117,-12.45892c4.11084,-5.73347 3.27065,-2.71335 5.71937,-6.9241c1.21499,-3.55018 -0.53299,3.06238 -12.24855,6.17067z" data-paper-data="{&quot;origPos&quot;:null}" fill="#000000" stroke-width="0.5"/><text transform="translate(223.33386,210.98584) scale(2.22369,2.22369)" font-size="40" xml:space="preserve" data-paper-data="{&quot;origPos&quot;:null}" fill="#ffffff" fill-rule="nonzero" stroke="none" stroke-width="1" stroke-linecap="butt" stroke-linejoin="miter" stroke-miterlimit="10" stroke-dasharray="" stroke-dashoffset="0" font-family="Sans Serif" font-weight="normal" text-anchor="start" style="mix-blend-mode: normal"><tspan x="0" dy="0">?</tspan></text></g></g></svg>