<svg version="1.1" xmlns="http://www.w3.org/2000/svg" xmlns:xlink="http://www.w3.org/1999/xlink" width="68.34256" height="123.4148" viewBox="0,0,68.34256,123.4148"><g transform="translate(-207.44469,-114.55156)"><g data-paper-data="{&quot;isPaintingLayer&quot;:true}" fill="none" fill-rule="nonzero" stroke="none" stroke-width="none" stroke-linecap="butt" stroke-linejoin="miter" stroke-miterlimit="10" stroke-dasharray="" stroke-dashoffset="0" font-family="none" font-weight="none" font-size="none" text-anchor="none" style="mix-blend-mode: normal"><path d="M207.53239,140.48229c-0.34358,-1.14295 0.41805,-2.11425 0.63973,-2.3655c0.68712,-1.12126 9.31407,-0.9634 13.55964,-0.46939c4.23538,0.49282 9.71775,0 14.01517,0c9.5855,0 19.09157,-0.32593 28.68221,-0.32593c2.74058,0 8.59981,-0.96425 10.07475,2.20912c1.67903,3.61246 1.22837,6.42697 1.22837,10.05306c0,4.45876 0.2651,8.2177 -1.57056,12.54158c-1.21113,2.42227 -6.68695,12.82573 -8.0436,15.73056c-1.81794,3.89251 -3.86407,7.35656 -5.37792,11.4077c-2.08618,5.56315 -4.62782,11.59415 -7.43828,16.86287c-1.68507,3.15898 -2.78225,6.68674 -5.02566,10.896c-2.8973,8.98174 -4.17455,7.07515 -9.92184,7.10861c-5.45454,0.03176 -13.2062,-0.63532 -18.5941,0.14366c-2.12376,0.26547 -4.04063,0.25433 -6.13137,-0.21831c-0.43693,-0.09877 -2.14477,-3.5032 -2.21614,-5.1324c-0.04836,-1.10394 7.16422,-14.98171 9.76338,-19.37128c3.61142,-9.63045 9.46332,-17.81317 13.04477,-27.36368c0.4889,-1.30374 0.9778,-2.60747 1.4667,-3.91121c0.0334,-0.08906 0.0668,-0.17813 0.1002,-0.26719c-0.0923,-0.05106 -0.18247,-0.0884 -0.26685,-0.09946c-0.92375,-0.12108 -1.79886,0.51322 -2.72332,0.62877c-5.30745,0.66343 -10.61068,0.50821 -15.95493,0.50821c-1.42002,0 -5.86488,0.28327 -6.2086,-0.01931c-4.40948,-3.88173 -2.44933,-8.25661 -2.13891,-13.22068c0.23347,-3.73359 -0.35348,-7.42261 -0.81484,-11.11346c-0.17696,-1.41571 -0.18227,-2.79595 -0.18227,-4.2213zM268.01473,145.64699c0.23603,0.24582 0.4284,0.51826 0.35485,0.33216c-0.06013,-0.15213 -0.19905,-0.24834 -0.35485,-0.33216z" data-paper-data="{&quot;origPos&quot;:null}" fill="#000000" stroke-width="0.5"/><text transform="translate(216.46144,211.28207) scale(2.22369,2.22369)" font-size="40" xml:space="preserve" data-paper-data="{&quot;origPos&quot;:null}" fill="#ffffff" fill-rule="nonzero" stroke="none" stroke-width="1" stroke-linecap="butt" stroke-linejoin="miter" stroke-miterlimit="10" stroke-dasharray="" stroke-dashoffset="0" font-family="Sans Serif" font-weight="normal" text-anchor="start" style="mix-blend-mode: normal"><tspan x="0" dy="0">7</tspan></text></g></g></svg>