<svg version="1.1" xmlns="http://www.w3.org/2000/svg" xmlns:xlink="http://www.w3.org/1999/xlink" width="90.63323" height="56.75066"><g transform="translate(-185.83587,-147.76383)"><g data-paper-data="{&quot;isPaintingLayer&quot;:true}" fill="none" fill-rule="nonzero" stroke="none" stroke-width="none" stroke-linecap="none" stroke-linejoin="miter" stroke-miterlimit="10" stroke-dasharray="" stroke-dashoffset="0" font-family="none" font-weight="none" font-size="none" text-anchor="none" style="mix-blend-mode: normal"><path d="M258.6561,177.40947l-36.39089,-1.19593" data-paper-data="{&quot;origPos&quot;:null,&quot;index&quot;:null,&quot;origRot&quot;:0}" fill="none" stroke="#000000" stroke-width="22.5" stroke-linecap="round"/><path d="M224.16109,176.57362l33.06865,0.68519" data-paper-data="{&quot;origPos&quot;:null,&quot;index&quot;:null,&quot;origRot&quot;:0}" fill="none" stroke="#ffffff" stroke-width="6" stroke-linecap="round"/><path d="M251.35875,193.5186c0,6.07286 -5.0362,10.99589 -11.24867,10.99589c-6.21247,0 -11.24867,-4.92303 -11.24867,-10.99589c0,-6.07286 5.0362,-10.99589 11.24867,-10.99589c6.21247,0 11.24867,4.92303 11.24867,10.99589z" data-paper-data="{&quot;origPos&quot;:null}" fill="#000000" stroke="none" stroke-width="0" stroke-linecap="butt"/><path d="M252.16021,158.53965c0,5.95132 -5.11868,10.77582 -11.43289,10.77582c-6.31421,0 -11.43289,-4.8245 -11.43289,-10.77582c0,-5.95132 5.11868,-10.77582 11.43289,-10.77582c6.31421,0 11.43289,4.8245 11.43289,10.77582z" data-paper-data="{&quot;origPos&quot;:null}" fill="#000000" stroke="none" stroke-width="0" stroke-linecap="butt"/><path d="M243.50003,158.59814c0,1.73386 -1.48365,3.13942 -3.31384,3.13942c-1.83018,0 -3.31384,-1.40557 -3.31384,-3.13942c0,-1.73386 1.48365,-3.13942 3.31384,-3.13942c1.83018,0 3.31384,1.40557 3.31384,3.13942z" data-paper-data="{&quot;origPos&quot;:null}" fill="#ffffff" stroke="none" stroke-width="0" stroke-linecap="butt"/><path d="M244.20527,193.24005c0,1.97301 -1.64153,3.57245 -3.66646,3.57245c-2.02493,0 -3.66646,-1.59944 -3.66646,-3.57245c0,-1.97301 1.64153,-3.57245 3.66646,-3.57245c2.02493,0 3.66646,1.59944 3.66646,3.57245z" data-paper-data="{&quot;origPos&quot;:null}" fill="#ffffff" stroke="none" stroke-width="0" stroke-linecap="butt"/><path d="M185.83587,178.26732c0,-1.38071 1.11929,-2.5 2.5,-2.5c1.38071,0 2.5,1.11929 2.5,2.5c0,1.38071 -1.11929,2.5 -2.5,2.5c-1.38071,0 -2.5,-1.11929 -2.5,-2.5z" data-paper-data="{&quot;origPos&quot;:null}" fill="none" stroke="none" stroke-width="0.5" stroke-linecap="butt"/><path d="M271.4691,177.82871c0,-1.38071 1.11929,-2.5 2.5,-2.5c1.38071,0 2.5,1.11929 2.5,2.5c0,1.38071 -1.11929,2.5 -2.5,2.5c-1.38071,0 -2.5,-1.11929 -2.5,-2.5z" data-paper-data="{&quot;origPos&quot;:null}" fill="none" stroke="none" stroke-width="0.5" stroke-linecap="butt"/></g></g></svg>