<svg version="1.1" xmlns="http://www.w3.org/2000/svg" xmlns:xlink="http://www.w3.org/1999/xlink" width="486" height="87"><g transform="translate(3,29.5)"><g data-paper-data="{&quot;isPaintingLayer&quot;:true}" fill="none" fill-rule="nonzero" stroke="none" stroke-width="0" stroke-linecap="butt" stroke-linejoin="miter" stroke-miterlimit="10" stroke-dasharray="" stroke-dashoffset="0" font-family="none" font-weight="none" font-size="none" text-anchor="none" style="mix-blend-mode: normal"><g><path d="M-1,32.5v-62h482.59036v62z" data-paper-data="{&quot;origPos&quot;:null}" fill="#66f1ff"/><path d="M-3,37.5c0,-10.49341 8.50659,-19 19,-19c10.49341,0 19,8.50659 19,19c0,10.49341 -8.50659,19 -19,19c-10.49341,0 -19,-8.50659 -19,-19z" data-paper-data="{&quot;origPos&quot;:null}" fill="#66f1ff"/><path d="M35,36.5c0,-10.49341 8.50659,-19 19,-19c10.49341,0 19,8.50659 19,19c0,10.49341 -8.50659,19 -19,19c-10.49341,0 -19,-8.50659 -19,-19z" data-paper-data="{&quot;origPos&quot;:null}" fill="#ff6666"/><path d="M73,36.5c0,-10.49341 8.50659,-19 19,-19c10.49341,0 19,8.50659 19,19c0,10.49341 -8.50659,19 -19,19c-10.49341,0 -19,-8.50659 -19,-19z" data-paper-data="{&quot;origPos&quot;:null}" fill="#66f1ff"/><path d="M111.00003,38.5c0,-10.49341 8.50659,-19 19,-19c10.49341,0 19,8.50659 19,19c0,10.49341 -8.50659,19 -19,19c-10.49341,0 -19,-8.50659 -19,-19z" data-paper-data="{&quot;origPos&quot;:null}" fill="#ff6666"/><path d="M149,37.5c0,-10.49341 8.50659,-19 19,-19c10.49341,0 19,8.50659 19,19c0,10.49341 -8.50659,19 -19,19c-10.49341,0 -19,-8.50659 -19,-19z" data-paper-data="{&quot;origPos&quot;:null}" fill="#66f1ff"/><path d="M186,38.5c0,-10.49341 8.50659,-19 19,-19c10.49341,0 19,8.50659 19,19c0,10.49341 -8.50659,19 -19,19c-10.49341,0 -19,-8.50659 -19,-19z" data-paper-data="{&quot;origPos&quot;:null}" fill="#ff6666"/><path d="M223,37.5c0,-10.49341 8.50659,-19 19,-19c10.49341,0 19,8.50659 19,19c0,10.49341 -8.50659,19 -19,19c-10.49341,0 -19,-8.50659 -19,-19z" data-paper-data="{&quot;origPos&quot;:null}" fill="#66f1ff"/><path d="M258,38.5c0,-10.49341 8.50659,-19 19,-19c10.49341,0 19,8.50659 19,19c0,10.49341 -8.50659,19 -19,19c-10.49341,0 -19,-8.50659 -19,-19z" data-paper-data="{&quot;origPos&quot;:null}" fill="#ff6666"/><path d="M296,37.5c0,-10.49341 8.50659,-19 19,-19c10.49341,0 19,8.50659 19,19c0,10.49341 -8.50659,19 -19,19c-10.49341,0 -19,-8.50659 -19,-19z" data-paper-data="{&quot;origPos&quot;:null}" fill="#66f1ff"/><path d="M333,38.5c0,-10.49341 8.50659,-19 19,-19c10.49341,0 19,8.50659 19,19c0,10.49341 -8.50659,19 -19,19c-10.49341,0 -19,-8.50659 -19,-19z" data-paper-data="{&quot;origPos&quot;:null}" fill="#ff6666"/><path d="M370,38.5c0,-10.49341 8.50659,-19 19,-19c10.49341,0 19,8.50659 19,19c0,10.49341 -8.50659,19 -19,19c-10.49341,0 -19,-8.50659 -19,-19z" data-paper-data="{&quot;origPos&quot;:null}" fill="#66f1ff"/><path d="M407,38.5c0,-10.49341 8.50659,-19 19,-19c10.49341,0 19,8.50659 19,19c0,10.49341 -8.50659,19 -19,19c-10.49341,0 -19,-8.50659 -19,-19z" data-paper-data="{&quot;origPos&quot;:null}" fill="#ff6666"/><path d="M445,37.5c0,-10.49341 8.50659,-19 19,-19c10.49341,0 19,8.50659 19,19c0,10.49341 -8.50659,19 -19,19c-10.49341,0 -19,-8.50659 -19,-19z" data-paper-data="{&quot;origPos&quot;:null}" fill="#66f1ff"/><path d="M35,36.5v-66h38v66z" data-paper-data="{&quot;origPos&quot;:null}" fill="#ff6666"/><path d="M111,37.5v-67h38v67z" data-paper-data="{&quot;origPos&quot;:null}" fill="#ff6666"/><path d="M186,39.5v-69h38v69z" data-paper-data="{&quot;origPos&quot;:null}" fill="#ff6666"/><path d="M258,37.5v-67h38v67z" data-paper-data="{&quot;origPos&quot;:null}" fill="#ff6666"/><path d="M333,41.5v-71h38v71z" data-paper-data="{&quot;origPos&quot;:null}" fill="#ff6666"/><path d="M407,39.5v-69h38v69z" data-paper-data="{&quot;origPos&quot;:null}" fill="#ff6666"/></g></g></g></svg>