<svg version="1.1" xmlns="http://www.w3.org/2000/svg" xmlns:xlink="http://www.w3.org/1999/xlink" width="90.63318" height="124.81339"><g transform="translate(-185.83598,-115.75375)"><g data-paper-data="{&quot;isPaintingLayer&quot;:true}" fill="none" fill-rule="nonzero" stroke="none" stroke-width="none" stroke-linecap="none" stroke-linejoin="miter" stroke-miterlimit="10" stroke-dasharray="" stroke-dashoffset="0" font-family="none" font-weight="none" font-size="none" text-anchor="none" style="mix-blend-mode: normal"><path d="M185.83598,178.26734c0,-1.38071 1.11929,-2.5 2.5,-2.5c1.38071,0 2.5,1.11929 2.5,2.5c0,1.38071 -1.11929,2.5 -2.5,2.5c-1.38071,0 -2.5,-1.11929 -2.5,-2.5z" data-paper-data="{&quot;origPos&quot;:null}" fill="none" stroke="none" stroke-width="0.5" stroke-linecap="butt"/><path d="M271.46916,177.82874c0,-1.38071 1.11929,-2.5 2.5,-2.5c1.38071,0 2.5,1.11929 2.5,2.5c0,1.38071 -1.11929,2.5 -2.5,2.5c-1.38071,0 -2.5,-1.11929 -2.5,-2.5z" data-paper-data="{&quot;origPos&quot;:null}" fill="none" stroke="none" stroke-width="0.5" stroke-linecap="butt"/><path d="" data-paper-data="{&quot;origPos&quot;:null,&quot;origRot&quot;:0}" fill="none" stroke="#00cccc" stroke-width="24" stroke-linecap="round"/><path d="" data-paper-data="{&quot;origPos&quot;:null,&quot;origRot&quot;:0}" fill="none" stroke="#ffffff" stroke-width="6" stroke-linecap="round"/><path d="" data-paper-data="{&quot;origPos&quot;:null,&quot;origRot&quot;:0}" fill="none" stroke="#00cccc" stroke-width="24" stroke-linecap="round"/><path d="" data-paper-data="{&quot;origPos&quot;:null,&quot;origRot&quot;:0}" fill="none" stroke="#ffffff" stroke-width="6" stroke-linecap="round"/><path d="M267.40312,161.47039c0.29416,2.72116 0.01379,6.36547 0.35934,9.10198c0.50672,4.01276 0.93415,8.9858 -1.77591,12.28102c-0.29267,0.35588 -5.49494,0.04952 -7.52117,-0.18808c-1.00743,-0.22087 -3.79817,0.29967 -3.79817,0.35664c0,0.44948 -0.23839,4.92767 -0.35934,6.74221c-0.32664,4.90044 1.5875,25.64482 0.86012,30.66166c-0.2227,1.53603 -2.85065,3.46306 -3.5552,3.89215c-1.42263,0.8664 -10.37775,-0.44892 -12.60211,-0.18808c-3.41605,0.36264 -6.68273,-0.22768 -10.06164,0.16856c-0.9559,0.1121 -3.82252,0.89917 -4.64642,0.35664c-1.48024,-0.97475 -2.90461,-2.11685 -3.91455,-3.52429c-0.31442,-0.43818 0.50078,-9.88272 0.50078,-13.49979c0,-6.74221 0,-13.48441 0,-20.22662c0,-1.31296 0.08102,-2.65743 0.06284,-3.98174c-0.02925,-0.04692 -0.05646,-0.0941 -0.08179,-0.1413c-2.49489,0.31895 -4.64439,0.63057 -7.26197,-0.32635c-2.80785,-1.02647 -2.87268,-5.80538 -2.58024,-8.00018c0.83551,-5.44259 -1.59594,-12.09489 2.15165,-16.84315c1.33273,-1.68859 5.52138,-1.01848 6.8968,-1.99158c1.66624,-1.17885 1.41956,-2.41898 1.73189,-4.76299c1.68164,-11.58004 12.95879,-17.53585 24.43966,-18.88217c8.77412,-0.93146 17.09427,1.35949 25.1034,4.41901l0.00923,-0.02023c0,0 4.53848,2.89476 3.97308,4.23528c-0.02541,0.06256 -0.0534,0.12394 -0.08382,0.18401c-0.22269,0.45436 0.21709,1.44853 -0.08552,1.67013c0,0 -8.17789,14.40645 -9.11562,16.61826c-0.31258,0.73727 1.35469,1.889 1.35469,1.889z" data-paper-data="{&quot;origPos&quot;:null}" fill="#000000" stroke="none" stroke-width="0.5" stroke-linecap="butt"/><text transform="translate(222.10631,213.58047) scale(2.39721,2.24889)" font-size="40" xml:space="preserve" data-paper-data="{&quot;origPos&quot;:null}" fill="#ffffff" fill-rule="nonzero" stroke="none" stroke-width="1" stroke-linecap="butt" stroke-linejoin="miter" stroke-miterlimit="10" stroke-dasharray="" stroke-dashoffset="0" font-family="Sans Serif" font-weight="normal" text-anchor="start" style="mix-blend-mode: normal"><tspan x="0" dy="0">f</tspan></text></g></g></svg>