<svg version="1.1" xmlns="http://www.w3.org/2000/svg" xmlns:xlink="http://www.w3.org/1999/xlink" width="90.63323" height="60.28874"><g transform="translate(-185.83587,-149.09138)"><g data-paper-data="{&quot;isPaintingLayer&quot;:true}" fill="none" fill-rule="nonzero" stroke="none" stroke-width="none" stroke-linecap="none" stroke-linejoin="miter" stroke-miterlimit="10" stroke-dasharray="" stroke-dashoffset="0" font-family="none" font-weight="none" font-size="none" text-anchor="none" style="mix-blend-mode: normal"><path d="M239.79808,198.13012l-0.78066,-37.78874" data-paper-data="{&quot;origPos&quot;:null}" stroke="#000000" stroke-width="22.5" stroke-linecap="round"/><path d="M220.4388,181.33697l36.99785,-2.78366" data-paper-data="{&quot;origPos&quot;:null}" stroke="#000000" stroke-width="22.5" stroke-linecap="round"/><path d="M239.62559,196.72373l-0.68834,-35.3694" data-paper-data="{&quot;origPos&quot;:null,&quot;origRot&quot;:0}" stroke="#ffffff" stroke-width="6" stroke-linecap="round"/><path d="M220.42277,180.49555l36.7854,-2.34572" data-paper-data="{&quot;origPos&quot;:null}" stroke="#ffffff" stroke-width="6" stroke-linecap="round"/><path d="M185.83587,178.26732c0,-1.38071 1.11929,-2.5 2.5,-2.5c1.38071,0 2.5,1.11929 2.5,2.5c0,1.38071 -1.11929,2.5 -2.5,2.5c-1.38071,0 -2.5,-1.11929 -2.5,-2.5z" data-paper-data="{&quot;origPos&quot;:null}" stroke="none" stroke-width="0.5" stroke-linecap="butt"/><path d="M271.4691,177.82871c0,-1.38071 1.11929,-2.5 2.5,-2.5c1.38071,0 2.5,1.11929 2.5,2.5c0,1.38071 -1.11929,2.5 -2.5,2.5c-1.38071,0 -2.5,-1.11929 -2.5,-2.5z" data-paper-data="{&quot;origPos&quot;:null}" stroke="none" stroke-width="0.5" stroke-linecap="butt"/></g></g></svg>