<svg version="1.1" xmlns="http://www.w3.org/2000/svg" xmlns:xlink="http://www.w3.org/1999/xlink" width="65.45014" height="123.4148"><g transform="translate(-207.8511,-112.77942)"><g data-paper-data="{&quot;isPaintingLayer&quot;:true}" fill="none" fill-rule="nonzero" stroke="none" stroke-width="none" stroke-linecap="butt" stroke-linejoin="miter" stroke-miterlimit="10" stroke-dasharray="" stroke-dashoffset="0" font-family="none" font-weight="none" font-size="none" text-anchor="none" style="mix-blend-mode: normal"><path d="M208.57021,158.80211c1.05861,-4.23444 2.40384,-7.54173 4.55303,-11.30281c1.11977,-1.9596 3.39615,-4.43587 5.08533,-5.98802c1.87793,-1.72559 4.18918,-2.90121 6.38406,-4.15543c8.48577,-4.84901 21.70769,-4.84424 30.1851,0c3.34667,1.91239 8.03428,4.75308 10.55111,7.76874c3.87,4.63702 5.31546,11.20212 6.75285,16.95166c1.27906,5.11623 1.75443,17.15673 0.42672,24.69927c-0.75796,6.07643 -1.94689,11.88092 -5.55924,17.67986c-3.81183,6.11918 -5.94135,8.57884 -12.17144,12.20657c-6.11419,3.49382 -13.27513,5.73658 -20.32334,6.17691c-3.17406,0.1983 -6.29326,-0.36769 -9.43625,-0.30663c-1.5773,0 -2.99291,-0.34535 -4.51755,-0.72651c-1.44483,-0.36121 -7.12172,-2.24944 -7.48642,-3.7142c-1.3261,-5.3261 -1.41673,-12.9967 -1.41772,-18.58679c-0.29597,-2.3678 0.06531,-10.3271 0.81773,-10.76218c0.62396,-0.3608 1.3023,-0.59753 2.0005,-0.78891l-0.02559,-0.20474c-0.39815,-1.25653 -1.62154,-2.77602 -2.29739,-3.95875c-3.29356,-5.76373 -4.16166,-13.87154 -4.2406,-20.47047c0,-0.43458 0.71911,-4.51755 0.71911,-4.51755zM239.35557,166.78285c1.50511,0.45316 1.37577,-0.66745 0.97521,-1.98535c-0.27443,-0.8625 -0.54188,-0.18032 -0.81673,0.5209c-0.16107,0.01817 -0.15847,1.46445 -0.15847,1.46445z" data-paper-data="{&quot;origPos&quot;:null}" fill="#000000" stroke-width="0.5"/><text transform="translate(215.16079,209.50993) scale(2.22369,2.22369)" font-size="40" xml:space="preserve" data-paper-data="{&quot;origPos&quot;:null}" fill="#ffffff" fill-rule="nonzero" stroke="none" stroke-width="1" stroke-linecap="butt" stroke-linejoin="miter" stroke-miterlimit="10" stroke-dasharray="" stroke-dashoffset="0" font-family="Sans Serif" font-weight="normal" text-anchor="start" style="mix-blend-mode: normal"><tspan x="0" dy="0">9</tspan></text><path d="" fill="#00cbcc" stroke-width="0.5"/><path d="" fill="#00cbcc" stroke-width="0.5"/><path d="" fill="#00cbcc" stroke-width="0.5"/></g></g></svg>