<svg version="1.1" xmlns="http://www.w3.org/2000/svg" xmlns:xlink="http://www.w3.org/1999/xlink" width="20.95565" height="20.67357" viewBox="0,0,20.95565,20.67357"><g transform="translate(-229.03195,-205.54235)"><g data-paper-data="{&quot;isPaintingLayer&quot;:true}" fill="none" fill-rule="nonzero" stroke="none" stroke-width="0.5" stroke-linecap="butt" stroke-linejoin="miter" stroke-miterlimit="10" stroke-dasharray="" stroke-dashoffset="0" font-family="none" font-weight="none" font-size="none" text-anchor="none" style="mix-blend-mode: normal"><path d="M248.60089,211.36756c0.9221,1.43368 1.48579,3.08532 1.37224,5.51049c-0.28102,6.00196 -4.20878,8.87579 -8.52878,9.32414c-0.49993,0.07694 -4.2704,-0.17173 -5.48159,-0.69272c-2.353,-0.86285 -4.3728,-2.43856 -5.42764,-4.59071c-0.06151,-0.1255 -1.5125,-5.19794 -1.4865,-5.49184c-0.1454,-2.17222 0.702,-4.23425 0.92749,-4.57047c2.74498,-4.09285 10.64084,-7.31238 14.69661,-3.836c0,0 3.4058,3.43231 3.92817,4.34712z" data-paper-data="{&quot;origPos&quot;:null}" fill="#000000"/><path d="M242.28298,217.35756c-1.1765,2.35301 -5.15531,1.88965 -5.71311,-0.62045c-0.24014,-0.36784 -0.37971,-0.8073 -0.37971,-1.27935c0,-1.29424 1.04919,-2.34344 2.34344,-2.34344c0.22887,0 0.45008,0.03281 0.65917,0.09399c2.2423,-0.30557 4.30871,1.71225 3.09021,4.14926z" data-paper-data="{&quot;origPos&quot;:null}" fill="#ffffff"/></g></g></svg>