<svg version="1.1" xmlns="http://www.w3.org/2000/svg" xmlns:xlink="http://www.w3.org/1999/xlink" width="486" height="87"><g transform="translate(4,31.5)"><g data-paper-data="{&quot;isPaintingLayer&quot;:true}" fill="none" fill-rule="nonzero" stroke="none" stroke-width="none" stroke-linecap="butt" stroke-linejoin="miter" stroke-miterlimit="10" stroke-dasharray="" stroke-dashoffset="0" font-family="none" font-weight="none" font-size="none" text-anchor="none" style="mix-blend-mode: normal"><g fill="#7ca7a7" stroke-width="0"><path d="M-2,30.5v-62h482.59036v62z" data-paper-data="{&quot;origPos&quot;:null}"/><path d="M-4,35.5c0,-10.49341 8.50659,-19 19,-19c10.49341,0 19,8.50659 19,19c0,10.49341 -8.50659,19 -19,19c-10.49341,0 -19,-8.50659 -19,-19z" data-paper-data="{&quot;origPos&quot;:null}"/><path d="M34,34.5c0,-10.49341 8.50659,-19 19,-19c10.49341,0 19,8.50659 19,19c0,10.49341 -8.50659,19 -19,19c-10.49341,0 -19,-8.50659 -19,-19z" data-paper-data="{&quot;origPos&quot;:null}"/><path d="M72,34.5c0,-10.49341 8.50659,-19 19,-19c10.49341,0 19,8.50659 19,19c0,10.49341 -8.50659,19 -19,19c-10.49341,0 -19,-8.50659 -19,-19z" data-paper-data="{&quot;origPos&quot;:null}"/><path d="M110.00003,36.5c0,-10.49341 8.50659,-19 19,-19c10.49341,0 19,8.50659 19,19c0,10.49341 -8.50659,19 -19,19c-10.49341,0 -19,-8.50659 -19,-19z" data-paper-data="{&quot;origPos&quot;:null}"/><path d="M148,35.5c0,-10.49341 8.50659,-19 19,-19c10.49341,0 19,8.50659 19,19c0,10.49341 -8.50659,19 -19,19c-10.49341,0 -19,-8.50659 -19,-19z" data-paper-data="{&quot;origPos&quot;:null}"/><path d="M185,36.5c0,-10.49341 8.50659,-19 19,-19c10.49341,0 19,8.50659 19,19c0,10.49341 -8.50659,19 -19,19c-10.49341,0 -19,-8.50659 -19,-19z" data-paper-data="{&quot;origPos&quot;:null}"/><path d="M222,35.5c0,-10.49341 8.50659,-19 19,-19c10.49341,0 19,8.50659 19,19c0,10.49341 -8.50659,19 -19,19c-10.49341,0 -19,-8.50659 -19,-19z" data-paper-data="{&quot;origPos&quot;:null}"/><path d="M257,36.5c0,-10.49341 8.50659,-19 19,-19c10.49341,0 19,8.50659 19,19c0,10.49341 -8.50659,19 -19,19c-10.49341,0 -19,-8.50659 -19,-19z" data-paper-data="{&quot;origPos&quot;:null}"/><path d="M295,35.5c0,-10.49341 8.50659,-19 19,-19c10.49341,0 19,8.50659 19,19c0,10.49341 -8.50659,19 -19,19c-10.49341,0 -19,-8.50659 -19,-19z" data-paper-data="{&quot;origPos&quot;:null}"/><path d="M332,36.5c0,-10.49341 8.50659,-19 19,-19c10.49341,0 19,8.50659 19,19c0,10.49341 -8.50659,19 -19,19c-10.49341,0 -19,-8.50659 -19,-19z" data-paper-data="{&quot;origPos&quot;:null}"/><path d="M369,36.5c0,-10.49341 8.50659,-19 19,-19c10.49341,0 19,8.50659 19,19c0,10.49341 -8.50659,19 -19,19c-10.49341,0 -19,-8.50659 -19,-19z" data-paper-data="{&quot;origPos&quot;:null}"/><path d="M406,36.5c0,-10.49341 8.50659,-19 19,-19c10.49341,0 19,8.50659 19,19c0,10.49341 -8.50659,19 -19,19c-10.49341,0 -19,-8.50659 -19,-19z" data-paper-data="{&quot;origPos&quot;:null}"/><path d="M444,35.5c0,-10.49341 8.50659,-19 19,-19c10.49341,0 19,8.50659 19,19c0,10.49341 -8.50659,19 -19,19c-10.49341,0 -19,-8.50659 -19,-19z" data-paper-data="{&quot;origPos&quot;:null}"/><path d="M34,34.5v-66h38v66z" data-paper-data="{&quot;origPos&quot;:null}"/><path d="M110,35.5v-67h38v67z" data-paper-data="{&quot;origPos&quot;:null}"/><path d="M185,37.5v-69h38v69z" data-paper-data="{&quot;origPos&quot;:null}"/><path d="M257,35.5v-67h38v67z" data-paper-data="{&quot;origPos&quot;:null}"/><path d="M332,39.5v-71h38v71z" data-paper-data="{&quot;origPos&quot;:null}"/><path d="M406,37.5v-69h38v69z" data-paper-data="{&quot;origPos&quot;:null}"/></g><text transform="translate(122.69443,18.99614) scale(0.28812,0.28812)" font-size="40" xml:space="preserve" data-paper-data="{&quot;origPos&quot;:null}" fill="#ffffff" fill-rule="nonzero" stroke="none" stroke-width="1" stroke-linecap="butt" stroke-linejoin="miter" stroke-miterlimit="10" stroke-dasharray="" stroke-dashoffset="0" font-family="&quot;ヒラギノ角ゴ Pro W3&quot;, &quot;Hiragino Kaku Gothic Pro&quot;, Osaka, &quot;メイリオ&quot;, Meiryo, &quot;ＭＳ Ｐゴシック&quot;, &quot;MS PGothic&quot;" font-weight="normal" text-anchor="start" style="mix-blend-mode: normal"><tspan x="0" dy="0">さあ、じゅんび じゅんび… ここをクリックして かいてん しよう</tspan></text></g></g></svg>