<svg version="1.1" xmlns="http://www.w3.org/2000/svg" xmlns:xlink="http://www.w3.org/1999/xlink" width="67.04243" height="125.28348" viewBox="0,0,67.04243,125.28348"><g transform="translate(-205.91607,-114.91107)"><g data-paper-data="{&quot;isPaintingLayer&quot;:true}" fill="none" fill-rule="nonzero" stroke="none" stroke-width="none" stroke-linecap="butt" stroke-linejoin="miter" stroke-miterlimit="10" stroke-dasharray="" stroke-dashoffset="0" font-family="none" font-weight="none" font-size="none" text-anchor="none" style="mix-blend-mode: normal"><path d="" fill="#ffffff" stroke-width="0.5"/><path d="" fill="#ffffff" stroke-width="0.5"/><path d="" fill="#ffffff" stroke-width="0.5"/><path d="" fill="#00cbcc" stroke-width="0.5"/><path d="M268.14214,143.53786c0,4.86955 0.66924,9.01077 0.66924,13.88902c0,2.60012 -0.477,7.04315 -0.66174,7.27912c-0.77794,0.99377 -3.98628,1.30223 -4.9816,2.08603c1.31306,1.72908 6.01763,7.34971 7.04038,9.13953c2.35191,6.66476 2.4035,11.15835 2.75008,18.04512c-0.27329,4.37037 -0.92171,9.63843 -3.1355,13.51256c-1.82408,3.16801 -4.25541,6.49525 -6.88784,9.12768c-5.35442,5.35443 -12.88037,7.20562 -20.15339,7.20562c-3.27695,0 -6.92703,0.10786 -10.15545,-0.49246c-3.59589,-0.66864 -8.10732,-2.45991 -10.98589,-4.45156c-3.06819,-2.12283 -5.98147,-4.72294 -7.90013,-8.08057c-2.38158,-4.62703 -4.25278,-8.92786 -5.85334,-14.05133c-1.98295,-6.34753 -1.98552,-17.63324 -1.96808,-18.3274c2.84316,-15.09317 2.05508,-18.98733 8.93998,-27.24921c3.30161,-5.02071 8.41085,-8.97467 13.46614,-11.67026c3.62269,-1.93169 8.43871,-3.11 12.48762,-3.61612c4.06556,-0.5082 8.44305,-1.08319 12.54086,-0.82717c4.54107,0.2837 11.24417,0.41161 12.85125,3.28778zM241.72374,192.96743c-0.09608,-0.76054 0.15624,-1.76028 -0.61417,-2.07363c-0.84868,-0.34518 -1.77622,-0.56167 -2.17002,0.53595c-0.42336,1.18005 0.07794,2.56678 0.58883,3.71165c0.54516,2.15056 1.46806,1.13269 1.90182,-0.25229" data-paper-data="{&quot;origPos&quot;:null}" fill="#000000" stroke-width="0.5"/><text transform="translate(213.93528,213.10623) scale(2.25736,2.25736)" font-size="40" xml:space="preserve" data-paper-data="{&quot;origPos&quot;:null}" fill="#ffffff" fill-rule="nonzero" stroke="none" stroke-width="1" stroke-linecap="butt" stroke-linejoin="miter" stroke-miterlimit="10" stroke-dasharray="" stroke-dashoffset="0" font-family="Sans Serif" font-weight="normal" text-anchor="start" style="mix-blend-mode: normal"><tspan x="0" dy="0">6</tspan></text><path d="" fill="#00cbcc" stroke-width="0.5"/><path d="" fill="#00cbcc" stroke-width="0.5"/><path d="" fill="#00cbcc" stroke-width="0.5"/><path d="" fill="#00cbcc" stroke-width="0.5"/><path d="" fill="#00cbcc" stroke-width="0.5"/><path d="" fill="#00cbcc" stroke-width="0.5"/><path d="" fill="#00cbcc" stroke-width="0.5"/><path d="" fill="#00cbcc" stroke-width="0.5"/><path d="" fill="#00cbcc" stroke-width="0.5"/><path d="" data-paper-data="{&quot;origPos&quot;:null}" fill="#00cbcc" stroke-width="0.5"/><path d="" fill="#00cbcc" stroke-width="0.5"/><path d="" fill="#00cbcc" stroke-width="0.5"/><path d="" data-paper-data="{&quot;origPos&quot;:null}" fill="#cc0000" stroke-width="0.5"/><path d="" data-paper-data="{&quot;origPos&quot;:null}" fill="#cc0000" stroke-width="0.5"/></g></g></svg>