<svg version="1.1" xmlns="http://www.w3.org/2000/svg" xmlns:xlink="http://www.w3.org/1999/xlink" width="90.63314" height="123.4148"><g transform="translate(-185.83602,-113.48566)"><g data-paper-data="{&quot;isPaintingLayer&quot;:true}" fill="none" fill-rule="nonzero" stroke="none" stroke-width="none" stroke-linecap="none" stroke-linejoin="miter" stroke-miterlimit="10" stroke-dasharray="" stroke-dashoffset="0" font-family="none" font-weight="none" font-size="none" text-anchor="none" style="mix-blend-mode: normal"><path d="M185.83602,178.26733c0,-1.38071 1.11929,-2.5 2.5,-2.5c1.38071,0 2.5,1.11929 2.5,2.5c0,1.38071 -1.11929,2.5 -2.5,2.5c-1.38071,0 -2.5,-1.11929 -2.5,-2.5z" data-paper-data="{&quot;origPos&quot;:null}" fill="none" stroke="none" stroke-width="0.5" stroke-linecap="butt"/><path d="M271.46916,177.82872c0,-1.38071 1.11929,-2.5 2.5,-2.5c1.38071,0 2.5,1.11929 2.5,2.5c0,1.38071 -1.11929,2.5 -2.5,2.5c-1.38071,0 -2.5,-1.11929 -2.5,-2.5z" data-paper-data="{&quot;origPos&quot;:null}" fill="none" stroke="none" stroke-width="0.5" stroke-linecap="butt"/><path d="" data-paper-data="{&quot;origPos&quot;:null,&quot;origRot&quot;:0}" fill="none" stroke="#00cccc" stroke-width="24" stroke-linecap="round"/><path d="" data-paper-data="{&quot;origPos&quot;:null,&quot;origRot&quot;:0}" fill="none" stroke="#ffffff" stroke-width="6" stroke-linecap="round"/><path d="" data-paper-data="{&quot;origPos&quot;:null,&quot;origRot&quot;:0}" fill="none" stroke="#00cccc" stroke-width="24" stroke-linecap="round"/><path d="" data-paper-data="{&quot;origPos&quot;:null,&quot;origRot&quot;:0}" fill="none" stroke="#ffffff" stroke-width="6" stroke-linecap="round"/><path d="" data-paper-data="{&quot;origPos&quot;:null}" fill="#ffffff" stroke="none" stroke-width="0.5" stroke-linecap="butt"/><path d="" fill="#00cccc" stroke="none" stroke-width="0.5" stroke-linecap="butt"/><path d="M241.30242,220.41638c-0.02188,-0.44251 -5.06393,3.03314 -7.48444,3.03314c-1.74231,0 -12.60164,-3.21639 -15.86352,-5.93461c-8.14247,-6.86898 -13.38056,-17.64441 -13.38056,-28.39544c0.14652,-9.78114 1.96796,-21.34681 9.24202,-28.62086c6.21094,-5.88949 14.38223,-10.55943 23.01508,-9.34177l0.05208,-0.18227l1.11825,0.3195c-0.0459,-1.68136 -0.27196,-3.31921 -0.14471,-5.10173c0.18539,-2.59704 -0.62764,-12.74174 1.39857,-13.97726c2.6016,-1.58638 3.94072,-1.50239 6.56085,-1.16773c5.5835,0.79764 11.24905,0.54219 16.85512,0.54219c1.01403,0 5.03224,-0.41838 5.64853,0.40334c2.34264,3.12352 1.76823,5.64168 1.76823,9.09359c0,6.59756 -0.85022,13.25316 -0.37821,19.85616c0.25049,3.50416 0.8557,33.78402 0.76403,39.07538c0.06272,4.30845 0.55868,18.24068 -0.0076,19.16936c-1.78457,2.92662 -3.05217,3.4215 -6.09302,3.63464c-1.87549,0.13146 -10.44436,0.52372 -13.38437,0.52372c-1.88988,0 -4.84382,0.47018 -7.84391,-0.62751c0,0 -1.78953,-1.23197 -1.84242,-2.30184z" data-paper-data="{&quot;origPos&quot;:null}" fill="#000000" stroke="none" stroke-width="0.5" stroke-linecap="butt"/><text transform="translate(211.29598,210.21617) scale(2.22369,2.22369)" font-size="40" xml:space="preserve" data-paper-data="{&quot;origPos&quot;:null}" fill="#ffffff" fill-rule="nonzero" stroke="none" stroke-width="1" stroke-linecap="butt" stroke-linejoin="miter" stroke-miterlimit="10" stroke-dasharray="" stroke-dashoffset="0" font-family="Sans Serif" font-weight="normal" text-anchor="start" style="mix-blend-mode: normal"><tspan x="0" dy="0">d</tspan></text></g></g></svg>