<svg version="1.1" xmlns="http://www.w3.org/2000/svg" xmlns:xlink="http://www.w3.org/1999/xlink" width="62.19175" height="123.4148" viewBox="0,0,62.19175,123.4148"><g transform="translate(-210.47065,-113.89151)"><g data-paper-data="{&quot;isPaintingLayer&quot;:true}" fill="none" fill-rule="nonzero" stroke="none" stroke-width="none" stroke-linecap="butt" stroke-linejoin="miter" stroke-miterlimit="10" stroke-dasharray="" stroke-dashoffset="0" font-family="none" font-weight="none" font-size="none" text-anchor="none" style="mix-blend-mode: normal"><path d="M237.64075,137.53768c2.83638,-2.02598 4.79439,-1.91307 8.1189,-1.91307c1.49795,0 7.67117,0.35675 8.53566,-0.0206c6.20829,-0.41828 7.91855,-0.05178 7.21614,3.05854c0.24434,5.3315 -0.48921,42.8406 -0.30402,44.02924c0.30757,1.97417 -0.05104,14.60998 0.43137,18.64476c0.39244,3.28226 1.16691,15.01945 0.30663,16.6068c0.17669,6.05455 -1.8528,5.47115 -8.38682,5.10803c-2.3039,-0.12804 -16.57563,0.2598 -18.87863,-0.00031c-1.61733,0.27664 -4.81584,-0.35737 -4.26908,-4.25032c0.81138,-8.01121 0.67336,-23.06713 0.9873,-25.8467c0.38421,-3.0737 0.3546,-5.51458 0.16297,-8.58192c-0.06064,-0.97065 -0.13554,-3.34846 -0.36281,-3.22209c-0.38278,0.21281 -2.57384,1.14163 -3.12332,1.14163c-1.49044,0 -3.36555,0.32959 -4.36309,-0.7778c-1.96288,-2.17905 -2.64892,-5.56966 -3.72492,-8.25697c-0.77107,-1.92767 -1.7002,-3.71039 -3.18464,-5.19483c-1.45721,-1.45721 -5.01622,-3.05648 -5.71403,-5.04764c-1.16319,-3.3191 -0.68952,-4.64204 1.47104,-7.11063c0.89826,-1.02632 2.30589,-1.77199 3.40671,-2.55829l0.19483,-0.0615c0,0 15.03158,-11.0978 21.4798,-15.74631z" data-paper-data="{&quot;origPos&quot;:null}" fill="#000000" stroke-width="0.5"/><text transform="translate(218.45995,210.62202) scale(2.22369,2.22369)" font-size="40" xml:space="preserve" data-paper-data="{&quot;origPos&quot;:null}" fill="#ffffff" fill-rule="nonzero" stroke="none" stroke-width="1" stroke-linecap="butt" stroke-linejoin="miter" stroke-miterlimit="10" stroke-dasharray="" stroke-dashoffset="0" font-family="Sans Serif" font-weight="normal" text-anchor="start" style="mix-blend-mode: normal"><tspan x="0" dy="0">1</tspan></text></g></g></svg>